<svg version="1.1" id="Layer_1" xmlns="http://www.w3.org/2000/svg" xmlns:xlink="http://www.w3.org/1999/xlink" x="0px" y="0px"
	 width="100%" viewBox="0 0 1254 1254" enable-background="new 0 0 1254 1254" xml:space="preserve">
<path fill="#FDFDFE" opacity="1.000000" stroke="none" 
	d="
M1255.000000,643.000000 
	C1255.000000,846.965942 1255.000000,1050.931885 1255.000000,1254.948975 
	C837.103821,1254.948975 419.207611,1254.948975 1.000000,1254.948975 
	C1.000000,1053.970703 1.000000,852.941284 1.356831,651.690369 
	C2.356091,661.392456 2.734951,671.342102 3.712412,681.232544 
	C4.765837,691.891541 6.379855,702.495056 7.788559,713.553223 
	C10.477322,728.440125 12.877016,742.948425 15.863896,757.334839 
	C17.865313,766.974854 20.699913,776.441956 23.183327,786.366943 
	C28.745176,803.622498 34.285400,820.497559 39.877296,837.733887 
	C41.673538,842.743103 43.195339,847.489685 45.203236,852.020874 
	C52.018681,867.401245 59.005913,882.705505 66.032196,898.364624 
	C67.457375,900.897217 68.777916,903.104065 70.159569,905.682739 
	C71.239647,908.032043 72.258606,910.009460 73.358200,912.317139 
	C79.745934,923.584534 85.533028,934.864990 92.476357,945.382019 
	C104.253197,963.220276 116.759438,980.577087 129.082855,998.444946 
	C142.477737,1014.413269 155.379608,1030.406860 169.145737,1045.618408 
	C178.812943,1056.300659 189.657486,1065.917480 200.119278,1076.312500 
	C209.662506,1084.940674 218.893509,1093.468262 228.517517,1101.526733 
	C235.961456,1107.759766 243.897629,1113.404785 251.644012,1119.296631 
	C251.673019,1119.282104 251.707062,1119.337402 251.796021,1119.628174 
	C252.566238,1120.347534 253.247528,1120.776001 254.108978,1121.485840 
	C257.168060,1123.898560 260.046936,1126.030029 263.069977,1128.445557 
	C264.475647,1129.485718 265.737213,1130.241943 267.281799,1131.169922 
	C278.152527,1138.462524 288.599579,1145.805298 299.372284,1152.634155 
	C308.030121,1158.122192 317.082367,1162.987915 326.174377,1168.383545 
	C329.603485,1170.393677 332.817871,1172.150146 336.247864,1174.164185 
	C338.302551,1175.293823 340.141663,1176.166016 342.204956,1177.294922 
	C363.175537,1186.934814 383.824097,1196.543945 404.714722,1205.594238 
	C413.524933,1209.411133 422.845459,1212.050171 432.189972,1215.472900 
	C447.110840,1220.040161 461.641968,1224.906250 476.475922,1228.534058 
	C493.503937,1232.698486 510.800323,1235.765625 528.288025,1239.509521 
	C564.444397,1246.211792 600.580505,1248.967896 637.465454,1248.096069 
	C662.324646,1246.323730 686.746887,1244.792847 711.098511,1242.509277 
	C721.241760,1241.558228 731.234619,1239.004028 741.706055,1237.213135 
	C742.943420,1237.175781 743.784729,1237.177734 744.595703,1237.021973 
	C776.903076,1230.814087 808.538940,1222.125854 839.370361,1210.670654 
	C852.104004,1205.939575 864.524231,1200.365234 877.458313,1195.126587 
	C882.257263,1193.169800 886.737000,1191.372314 891.104004,1189.333496 
	C922.244995,1174.794189 952.055969,1157.858643 980.760620,1138.995972 
	C1005.670532,1122.626831 1029.406494,1104.675537 1051.338379,1084.456787 
	C1075.106323,1062.545410 1097.711548,1039.458984 1117.068726,1013.515198 
	C1132.376953,992.998413 1147.576904,972.303345 1161.236206,950.683716 
	C1173.005737,932.055237 1182.717163,912.106628 1192.968140,892.547607 
	C1197.611450,883.688354 1201.357422,874.358887 1205.727783,864.986328 
	C1214.650879,839.821045 1223.979980,815.106689 1231.836914,789.932861 
	C1236.809570,774.000610 1239.587280,757.383301 1243.574707,740.774048 
	C1248.882568,715.314026 1252.365845,689.957703 1253.372192,663.922058 
	C1253.755737,656.712891 1253.878174,649.848633 1254.251343,642.929932 
	C1254.667969,642.916992 1254.833984,642.958496 1255.000000,643.000000 
z"/>
<path fill="#FDFDFD" opacity="1.000000" stroke="none" 
	d="
M1.000000,601.000000 
	C1.000000,401.072693 1.000000,201.145416 1.000000,1.000000 
	C188.359116,1.000000 375.718323,1.000000 563.325806,1.342360 
	C560.041382,2.156059 556.508667,2.627398 552.553467,3.070551 
	C536.615112,5.740846 520.962769,7.834202 505.617706,11.291417 
	C486.562012,15.584627 467.760559,21.006041 448.472290,25.951359 
	C445.067993,26.956482 442.040680,27.950403 438.662537,28.941601 
	C437.693878,29.244173 437.076050,29.549473 436.090179,29.856522 
	C434.766846,30.122814 433.794220,30.337057 432.858795,30.659159 
	C399.331848,42.203777 366.816406,56.027096 335.657440,73.046158 
	C291.216461,97.319862 250.100830,126.298073 212.357025,159.996048 
	C185.261063,184.187576 160.391525,210.555313 138.146576,239.304688 
	C129.739380,250.170181 121.895447,261.471497 113.526047,272.795349 
	C97.304855,296.453644 82.233009,320.415497 69.569244,346.114105 
	C69.121552,346.799377 68.902832,347.319275 68.416710,348.053101 
	C67.014778,350.853088 65.880257,353.439178 64.494080,356.247864 
	C59.385914,367.455963 54.529392,378.441406 49.433479,389.704376 
	C42.454124,408.704895 35.217030,427.268250 29.136570,446.203033 
	C24.539745,460.517700 21.420454,475.306885 17.432571,490.192444 
	C14.907987,502.196442 12.000744,513.812805 10.409831,525.606750 
	C7.491854,547.238647 5.350224,568.975220 2.730905,590.832520 
	C2.379806,591.287964 2.397583,591.565186 2.515037,592.272949 
	C2.227719,595.456299 2.055587,598.195190 1.659912,600.914673 
	C1.436370,600.895325 1.000000,601.000000 1.000000,601.000000 
z"/>
<path fill="#FDFDFE" opacity="1.000000" stroke="none" 
	d="
M693.000000,0.999998 
	C880.265930,1.000000 1067.531860,1.000000 1255.000000,1.000000 
	C1255.000000,205.025787 1255.000000,409.051666 1254.753662,613.663940 
	C1254.327148,614.213135 1254.146729,614.175964 1254.006470,613.659180 
	C1253.315063,598.937866 1252.875854,584.673157 1251.751953,570.462585 
	C1250.972046,560.602112 1249.249634,550.816162 1248.004883,540.577881 
	C1245.380127,525.487488 1243.536011,510.600739 1239.829956,496.192932 
	C1233.513672,471.637939 1226.027588,447.383850 1219.014160,422.622070 
	C1211.505859,403.806519 1204.513306,385.149078 1196.366455,367.009979 
	C1190.063843,352.977295 1182.316406,339.593506 1175.120361,325.572937 
	C1160.234131,301.876007 1145.517578,278.476868 1130.570190,255.226044 
	C1127.938477,251.132278 1124.341431,247.659042 1121.154785,243.542343 
	C1120.561035,242.197571 1120.142822,241.091400 1119.423462,240.239273 
	C1104.649292,222.736755 1090.173950,204.964767 1074.902710,187.905685 
	C1066.872192,178.934952 1057.437500,171.221161 1048.661865,162.649902 
	C1034.119751,150.110016 1019.552429,137.860031 1004.801880,125.299408 
	C994.924316,118.003052 985.516479,110.569725 975.467896,104.137238 
	C960.659058,94.657524 945.393799,85.890846 930.059814,76.563255 
	C924.346375,73.359177 919.015930,70.158913 913.423218,67.513008 
	C896.778015,59.638168 880.086609,51.854214 863.283569,44.324284 
	C858.824646,42.326141 853.898621,41.370304 848.979248,39.628403 
	C844.220398,37.531124 839.669250,35.741325 834.857178,33.684555 
	C832.110657,32.928383 829.625000,32.439186 826.996399,31.609058 
	C826.320618,30.898039 825.838074,30.350842 825.247864,30.183601 
	C808.502869,25.438763 791.747009,20.732206 774.692383,15.780359 
	C760.978394,12.785781 747.628479,9.650798 734.132080,7.390021 
	C722.509644,5.443145 710.720215,4.492816 698.627441,3.019800 
	C696.500183,2.291813 694.750061,1.645905 693.000000,0.999998 
z"/>
<path fill="#26AEFC" opacity="1.000000" stroke="none" 
	d="
M2.884921,590.668152 
	C5.350224,568.975220 7.491854,547.238647 10.409831,525.606750 
	C12.000744,513.812805 14.907987,502.196442 17.826979,490.178284 
	C18.842581,489.608734 19.406214,489.458527 19.636564,489.096344 
	C20.665565,487.478485 21.599419,485.800110 22.567657,484.143616 
	C23.754774,485.708954 24.789244,487.432770 26.187199,488.779205 
	C27.003199,489.565125 28.625792,490.378876 29.489254,490.070526 
	C31.298738,489.424347 33.245678,488.364227 34.417995,486.899323 
	C36.834549,483.879547 39.236881,484.080231 42.055576,486.416504 
	C41.065323,491.191132 40.034035,495.555023 39.042179,499.927887 
	C31.267292,534.205200 27.166088,568.984131 24.491695,603.958862 
	C20.181150,602.242371 19.868906,604.809875 20.024273,607.586853 
	C20.453270,615.254639 19.584549,622.656677 16.508320,629.269165 
	C12.034681,628.792847 8.143267,628.378540 3.577609,627.892456 
	C5.162475,625.458435 6.032454,624.122253 7.275932,622.212524 
	C4.907779,621.377686 2.953885,620.688843 0.999995,620.000000 
	C1.000000,619.250000 1.000000,618.500000 1.347338,617.182861 
	C1.757602,611.388550 1.820528,606.161255 1.883454,600.934021 
	C2.055587,598.195190 2.227719,595.456299 2.612314,592.096375 
	C2.916716,591.211609 2.936765,590.942566 2.884921,590.668152 
z"/>
<path fill="#26B2FD" opacity="1.000000" stroke="none" 
	d="
M692.531372,0.999998 
	C694.750061,1.645905 696.500183,2.291813 698.568604,3.354147 
	C698.161743,4.397914 697.509583,5.147528 696.699036,5.631994 
	C692.639648,8.058226 689.166931,10.476730 689.843018,16.311691 
	C690.327393,20.492050 687.211853,21.138910 683.452087,20.784117 
	C679.856995,20.444860 676.179077,20.983389 672.537537,21.136093 
	C672.614563,21.458441 672.691589,21.780790 672.768555,22.103140 
	C675.512146,22.987190 678.255737,23.871241 680.644348,24.806849 
	C679.823608,24.764334 679.357849,24.670263 678.585632,24.385557 
	C677.050903,24.168940 675.822571,24.142956 674.158447,24.205011 
	C653.150574,23.815165 632.578613,23.337278 611.999512,22.496124 
	C609.624329,20.119711 607.341370,17.992393 604.855530,16.136936 
	C603.401489,15.051682 601.623596,14.400374 599.006897,13.043237 
	C601.847168,10.960544 603.589417,9.119926 605.726868,8.243545 
	C609.203369,6.818192 610.561523,4.588688 610.000000,1.000000 
	C637.354248,1.000000 664.708435,1.000000 692.531372,0.999998 
z"/>
<path fill="#30A8FC" opacity="1.000000" stroke="none" 
	d="
M0.999995,620.428467 
	C2.953885,620.688843 4.907779,621.377686 7.275932,622.212524 
	C6.032454,624.122253 5.162475,625.458435 3.577609,627.892456 
	C8.143267,628.378540 12.034681,628.792847 16.508320,629.269165 
	C19.584549,622.656677 20.453270,615.254639 20.024273,607.586853 
	C19.868906,604.809875 20.181150,602.242371 24.564445,604.354980 
	C24.904593,605.863586 24.814152,606.928833 24.351936,608.116882 
	C23.656199,608.951782 23.054497,609.662170 23.050087,610.376221 
	C22.987520,620.503967 22.959148,630.632690 23.069847,640.759583 
	C23.082296,641.898315 23.991919,643.027161 24.613764,644.546387 
	C26.097305,662.955139 27.452583,680.977966 28.474525,698.957764 
	C24.926735,700.039001 21.783194,701.494873 18.479380,702.201355 
	C14.588516,703.033386 12.021303,704.925232 10.564545,708.640076 
	C9.931581,710.254089 8.705820,711.635681 7.749309,713.122803 
	C6.379855,702.495056 4.765837,691.891541 3.712412,681.232544 
	C2.734951,671.342102 2.356091,661.392456 1.356831,651.234436 
	C1.000000,646.310730 1.000000,641.621521 1.398426,636.452087 
	C4.946654,633.625854 4.593011,629.200317 1.000000,626.000000 
	C1.000000,624.285645 1.000000,622.571289 0.999995,620.428467 
z"/>
<path fill="#1AB4FC" opacity="1.000000" stroke="none" 
	d="
M609.531372,1.000000 
	C610.561523,4.588688 609.203369,6.818192 605.726868,8.243545 
	C603.589417,9.119926 601.847168,10.960544 599.006897,13.043237 
	C601.623596,14.400374 603.401489,15.051682 604.855530,16.136936 
	C607.341370,17.992393 609.624329,20.119711 611.547363,22.587133 
	C596.738281,24.007780 582.374207,24.974148 567.718567,25.662491 
	C564.664124,25.523853 561.895142,25.589731 559.140076,25.821251 
	C555.700928,26.110256 552.364807,26.928118 551.197021,21.952246 
	C550.246582,17.902758 548.401123,14.063354 547.308472,11.097075 
	C549.525513,7.968219 551.250671,5.533473 552.975891,3.098732 
	C556.508667,2.627398 560.041382,2.156059 563.787109,1.342360 
	C579.020874,1.000000 594.041809,1.000000 609.531372,1.000000 
z"/>
<path fill="#30A8FC" opacity="1.000000" stroke="none" 
	d="
M1.659912,600.914673 
	C1.820528,606.161255 1.757602,611.388550 1.347338,616.807861 
	C1.000000,611.977905 1.000000,606.955811 1.000000,601.466858 
	C1.000000,601.000000 1.436370,600.895325 1.659912,600.914673 
z"/>
<path fill="#9968FB" opacity="1.000000" stroke="none" 
	d="
M1253.966431,614.138855 
	C1254.146729,614.175964 1254.327148,614.213135 1254.753662,614.125183 
	C1255.000000,623.354248 1255.000000,632.708435 1255.000000,642.531372 
	C1254.833984,642.958496 1254.667969,642.916992 1254.250854,642.463013 
	C1253.988525,632.746643 1253.977417,623.442749 1253.966431,614.138855 
z"/>
<path fill="#26AEFC" opacity="1.000000" stroke="none" 
	d="
M1.000000,626.454102 
	C4.593011,629.200317 4.946654,633.625854 1.398426,635.985962 
	C1.000000,632.969421 1.000000,629.938782 1.000000,626.454102 
z"/>
<path fill="#A95CFB" opacity="1.000000" stroke="none" 
	d="
M1205.510498,865.242798 
	C1201.357422,874.358887 1197.611450,883.688354 1192.968140,892.547607 
	C1182.717163,912.106628 1173.005737,932.055237 1161.236206,950.683716 
	C1147.576904,972.303345 1132.376953,992.998413 1117.068726,1013.515198 
	C1097.711548,1039.458984 1075.106323,1062.545410 1051.338379,1084.456787 
	C1029.406494,1104.675537 1005.670532,1122.626831 980.760620,1138.995972 
	C952.055969,1157.858643 922.244995,1174.794189 891.104004,1189.333496 
	C886.737000,1191.372314 882.257263,1193.169800 877.274353,1194.857422 
	C872.766357,1194.433472 871.005249,1192.480225 872.754822,1190.001343 
	C873.850281,1188.448975 875.617859,1186.386719 877.153748,1186.326416 
	C880.778259,1186.183716 881.895264,1184.173096 882.911682,1181.360352 
	C883.401306,1180.005249 884.253845,1178.514771 885.385681,1177.707764 
	C888.876953,1175.218628 888.476196,1172.251587 887.220093,1168.733643 
	C932.616882,1147.035034 974.842285,1120.882935 1013.494019,1089.137939 
	C1077.755493,1036.359619 1128.757446,972.836365 1167.129395,899.040039 
	C1172.774170,899.606567 1172.417847,894.530518 1175.786621,891.565979 
	C1173.385254,891.286438 1172.177979,891.145935 1170.955078,890.651672 
	C1171.859375,888.496094 1172.779297,886.694153 1174.130859,884.928833 
	C1179.636597,886.227966 1185.031250,887.710083 1188.270508,881.982117 
	C1191.891724,875.578735 1194.754761,868.750122 1198.229126,862.257141 
	C1198.963501,860.884949 1200.916504,860.164917 1202.308105,859.144409 
	C1203.054688,860.381042 1203.842896,861.594971 1204.532104,862.862793 
	C1204.939331,863.612061 1205.189575,864.446655 1205.510498,865.242798 
z"/>
<path fill="#9E61FA" opacity="1.000000" stroke="none" 
	d="
M886.979309,1168.976074 
	C888.476196,1172.251587 888.876953,1175.218628 885.385681,1177.707764 
	C884.253845,1178.514771 883.401306,1180.005249 882.911682,1181.360352 
	C881.895264,1184.173096 880.778259,1186.183716 877.153748,1186.326416 
	C875.617859,1186.386719 873.850281,1188.448975 872.754822,1190.001343 
	C871.005249,1192.480225 872.766357,1194.433472 876.903015,1194.905273 
	C864.524231,1200.365234 852.104004,1205.939575 839.370361,1210.670654 
	C808.538940,1222.125854 776.903076,1230.814087 744.595703,1237.021973 
	C743.784729,1237.177734 742.943420,1237.175781 741.390686,1236.988159 
	C741.663757,1231.815796 742.107849,1226.691528 743.867859,1222.068359 
	C744.933411,1219.269409 746.911743,1215.998657 751.838379,1217.738647 
	C754.845032,1218.800537 758.190186,1217.190186 758.294434,1212.527710 
	C782.902527,1205.339233 807.446838,1199.101562 831.415649,1191.132935 
	C850.304565,1184.853149 868.484497,1176.441040 886.979309,1168.976074 
z"/>
<path fill="#9E61FA" opacity="1.000000" stroke="none" 
	d="
M1205.727783,864.986328 
	C1205.189575,864.446655 1204.939331,863.612061 1204.532104,862.862793 
	C1203.842896,861.594971 1203.054688,860.381042 1202.308105,859.144409 
	C1200.916504,860.164917 1198.963501,860.884949 1198.229126,862.257141 
	C1194.754761,868.750122 1191.891724,875.578735 1188.270508,881.982117 
	C1185.031250,887.710083 1179.636597,886.227966 1174.251221,884.582520 
	C1182.828613,862.335327 1192.372070,840.707886 1200.394897,818.530273 
	C1206.600952,801.374756 1210.903076,783.530396 1216.208496,765.922119 
	C1216.437988,765.764893 1216.589111,765.646545 1216.569092,765.596252 
	C1216.490479,765.398193 1216.357788,765.221619 1216.217529,764.754578 
	C1216.421631,763.971558 1216.653564,763.471008 1217.216064,763.017700 
	C1217.823120,763.839966 1217.893555,764.824097 1218.421265,765.343872 
	C1219.336060,766.244690 1221.224487,767.700684 1221.510132,767.466553 
	C1226.391235,763.465576 1233.152832,761.463562 1235.523804,754.742798 
	C1236.730591,751.321655 1237.579956,747.738647 1239.143433,744.495056 
	C1239.853882,743.021118 1241.905884,742.193848 1243.349487,741.073242 
	C1239.587280,757.383301 1236.809570,774.000610 1231.836914,789.932861 
	C1223.979980,815.106689 1214.650879,839.821045 1205.727783,864.986328 
z"/>
<path fill="#8E6DFB" opacity="1.000000" stroke="none" 
	d="
M1254.006470,613.659180 
	C1253.977417,623.442749 1253.988525,632.746643 1254.000122,642.517456 
	C1253.878174,649.848633 1253.755737,656.712891 1253.305176,663.518982 
	C1252.300415,661.621277 1251.449097,659.822266 1251.010132,657.927734 
	C1250.726318,656.703369 1250.826538,655.282959 1251.142090,654.049500 
	C1251.770264,651.593506 1252.665649,649.205811 1253.450684,646.789917 
	C1252.874023,646.331116 1252.297241,645.872314 1251.720581,645.413574 
	C1248.870972,647.051880 1245.328857,648.112549 1243.353760,650.480469 
	C1241.081177,653.205017 1240.265747,657.119873 1238.660522,660.441956 
	C1238.205933,661.382568 1237.047729,662.811218 1236.482300,662.695496 
	C1235.352539,662.464355 1233.916504,661.519165 1233.506836,660.505310 
	C1232.917236,659.045776 1233.176147,657.256775 1232.989868,655.617798 
	C1232.663330,652.742310 1232.273926,649.873962 1231.817749,646.540955 
	C1231.777100,640.597717 1231.872681,635.116150 1231.875122,629.634583 
	C1231.889160,598.229065 1229.060669,567.045776 1224.840820,536.146729 
	C1229.134644,539.476685 1231.725830,543.258362 1231.531128,548.683594 
	C1231.494629,549.701416 1233.289551,550.784973 1234.239258,551.838196 
	C1235.249756,550.747803 1236.661743,549.825073 1237.199463,548.537292 
	C1239.228271,543.678833 1241.440674,539.361572 1247.948242,540.996948 
	C1249.249634,550.816162 1250.972046,560.602112 1251.751953,570.462585 
	C1252.875854,584.673157 1253.315063,598.937866 1254.006470,613.659180 
z"/>
<path fill="#9569FA" opacity="1.000000" stroke="none" 
	d="
M757.982422,1212.731934 
	C758.190186,1217.190186 754.845032,1218.800537 751.838379,1217.738647 
	C746.911743,1215.998657 744.933411,1219.269409 743.867859,1222.068359 
	C742.107849,1226.691528 741.663757,1231.815796 740.980469,1236.953857 
	C731.234619,1239.004028 721.241760,1241.558228 711.098511,1242.509277 
	C686.746887,1244.792847 662.324646,1246.323730 637.465454,1247.657471 
	C637.611633,1242.724731 636.652100,1239.393311 629.853027,1239.487183 
	C631.819519,1237.527588 632.857727,1236.520996 633.863647,1235.483276 
	C634.955811,1234.356201 636.017944,1233.199951 636.580811,1232.601440 
	C635.519348,1229.932617 634.762390,1228.029297 634.465942,1226.041016 
	C658.927856,1224.366699 682.992554,1223.401489 706.909302,1220.977051 
	C724.036316,1219.240845 740.965149,1215.550415 757.982422,1212.731934 
z"/>
<path fill="#518EFC" opacity="1.000000" stroke="none" 
	d="
M128.959091,998.136230 
	C116.759438,980.577087 104.253197,963.220276 92.476357,945.382019 
	C85.533028,934.864990 79.745934,923.584534 73.789825,912.321655 
	C80.870125,912.077820 87.539604,912.157410 91.379898,904.941589 
	C91.828247,904.099182 93.671242,903.999023 95.085464,903.787415 
	C97.169220,907.357178 99.036804,910.693420 100.900909,914.031555 
	C115.526909,940.223206 132.621490,964.767090 150.317413,988.752197 
	C149.354126,989.536926 148.145370,990.468628 148.300919,990.864807 
	C150.114471,995.484863 146.087296,997.093445 143.655182,1000.895630 
	C141.752747,998.026367 140.323944,995.871460 138.793945,993.563904 
	C137.289902,993.689453 135.334442,993.854309 133.378662,994.015442 
	C130.820145,994.226379 128.792068,995.003418 128.959091,998.136230 
z"/>
<path fill="#9968FB" opacity="1.000000" stroke="none" 
	d="
M1231.910889,647.002625 
	C1232.273926,649.873962 1232.663330,652.742310 1232.989868,655.617798 
	C1233.176147,657.256775 1232.917236,659.045776 1233.506836,660.505310 
	C1233.916504,661.519165 1235.352539,662.464355 1236.482300,662.695496 
	C1237.047729,662.811218 1238.205933,661.382568 1238.660522,660.441956 
	C1240.265747,657.119873 1241.081177,653.205017 1243.353760,650.480469 
	C1245.328857,648.112549 1248.870972,647.051880 1251.720581,645.413574 
	C1252.297241,645.872314 1252.874023,646.331116 1253.450684,646.789917 
	C1252.665649,649.205811 1251.770264,651.593506 1251.142090,654.049500 
	C1250.826538,655.282959 1250.726318,656.703369 1251.010132,657.927734 
	C1251.449097,659.822266 1252.300415,661.621277 1253.043945,663.863831 
	C1252.365845,689.957703 1248.882568,715.314026 1243.574707,740.774048 
	C1241.905884,742.193848 1239.853882,743.021118 1239.143433,744.495056 
	C1237.579956,747.738647 1236.730591,751.321655 1235.523804,754.742798 
	C1233.152832,761.463562 1226.391235,763.465576 1221.510132,767.466553 
	C1221.224487,767.700684 1219.336060,766.244690 1218.421265,765.343872 
	C1217.893555,764.824097 1217.823120,763.839966 1217.168335,762.694702 
	C1217.011597,761.495178 1217.233276,760.665710 1217.684326,759.827637 
	C1218.043457,759.744568 1218.173462,759.670166 1218.303345,759.595703 
	C1218.117676,759.386414 1217.931885,759.177185 1217.722412,758.545715 
	C1221.621704,732.839905 1225.845825,707.597717 1229.333740,682.254211 
	C1230.936768,670.606079 1231.096558,658.759338 1231.910889,647.002625 
z"/>
<path fill="#7277FB" opacity="1.000000" stroke="none" 
	d="
M431.934021,1215.224609 
	C422.845459,1212.050171 413.524933,1209.411133 404.714722,1205.594238 
	C383.824097,1196.543945 363.175537,1186.934814 342.210754,1176.896484 
	C343.654053,1173.003906 344.520752,1168.610107 347.160400,1166.795288 
	C351.306213,1163.944824 352.351959,1160.581177 352.742676,1156.310913 
	C358.010956,1158.852173 362.787018,1161.626099 367.852783,1163.688477 
	C394.919098,1174.708252 422.057770,1185.550293 449.033905,1196.837402 
	C447.832214,1198.772583 447.101227,1201.124268 445.643738,1201.730957 
	C440.516968,1203.865356 435.140594,1205.400024 430.239441,1207.035278 
	C430.962769,1210.531006 431.448395,1212.877808 431.934021,1215.224609 
z"/>
<path fill="#8271FA" opacity="1.000000" stroke="none" 
	d="
M432.189972,1215.472900 
	C431.448395,1212.877808 430.962769,1210.531006 430.239441,1207.035278 
	C435.140594,1205.400024 440.516968,1203.865356 445.643738,1201.730957 
	C447.101227,1201.124268 447.832214,1198.772583 449.271118,1196.872070 
	C449.645905,1196.523071 450.007690,1196.837769 450.008179,1197.259766 
	C450.705688,1198.771362 451.454865,1200.802490 452.089539,1200.767456 
	C453.753143,1200.675293 455.366852,1199.681763 457.386108,1199.041748 
	C467.682892,1201.809082 477.487366,1205.072876 487.527100,1207.253662 
	C508.945465,1211.906006 530.485840,1215.996948 551.980652,1220.745728 
	C550.977478,1224.723022 542.813843,1228.569824 538.304871,1227.619629 
	C529.060120,1225.671509 525.128296,1230.123169 527.980164,1239.309326 
	C510.800323,1235.765625 493.503937,1232.698486 476.475922,1228.534058 
	C461.641968,1224.906250 447.110840,1220.040161 432.189972,1215.472900 
z"/>
<path fill="#5688FB" opacity="1.000000" stroke="none" 
	d="
M129.082855,998.444946 
	C128.792068,995.003418 130.820145,994.226379 133.378662,994.015442 
	C135.334442,993.854309 137.289902,993.689453 138.793945,993.563904 
	C140.323944,995.871460 141.752747,998.026367 143.655182,1000.895630 
	C146.087296,997.093445 150.114471,995.484863 148.300919,990.864807 
	C148.145370,990.468628 149.354126,989.536926 150.558044,988.950989 
	C160.090454,999.561096 168.647049,1010.394409 177.982880,1020.508362 
	C190.354034,1033.910522 203.334274,1046.750244 216.009125,1060.192017 
	C213.666092,1062.515381 211.248703,1064.358276 209.095154,1066.470093 
	C205.955917,1069.548462 203.006531,1072.820435 199.976242,1076.010010 
	C189.657486,1065.917480 178.812943,1056.300659 169.145737,1045.618408 
	C155.379608,1030.406860 142.477737,1014.413269 129.082855,998.444946 
z"/>
<path fill="#8E6DFB" opacity="1.000000" stroke="none" 
	d="
M528.288025,1239.509521 
	C525.128296,1230.123169 529.060120,1225.671509 538.304871,1227.619629 
	C542.813843,1228.569824 550.977478,1224.723022 552.445557,1220.736206 
	C579.939148,1222.241333 606.972229,1224.183716 634.005371,1226.125977 
	C634.762390,1228.029297 635.519348,1229.932617 636.580811,1232.601440 
	C636.017944,1233.199951 634.955811,1234.356201 633.863647,1235.483276 
	C632.857727,1236.520996 631.819519,1237.527588 629.853027,1239.487183 
	C636.652100,1239.393311 637.611633,1242.724731 637.000000,1247.595215 
	C600.580505,1248.967896 564.444397,1246.211792 528.288025,1239.509521 
z"/>
<path fill="#687EFB" opacity="1.000000" stroke="none" 
	d="
M352.384094,1156.215332 
	C352.351959,1160.581177 351.306213,1163.944824 347.160400,1166.795288 
	C344.520752,1168.610107 343.654053,1173.003906 341.986572,1176.639648 
	C340.141663,1176.166016 338.302551,1175.293823 336.247498,1173.765747 
	C336.119629,1170.441284 339.043823,1166.793091 335.048828,1165.465698 
	C332.133728,1164.497437 327.787262,1163.275635 325.959625,1168.129883 
	C317.082367,1162.987915 308.030121,1158.122192 299.372284,1152.634155 
	C288.599579,1145.805298 278.152527,1138.462524 267.282654,1130.747803 
	C266.887482,1128.241455 266.774506,1126.329224 266.611237,1123.566040 
	C264.882812,1125.721313 263.904327,1126.941406 262.925842,1128.161499 
	C260.046936,1126.030029 257.168060,1123.898560 254.088257,1121.125732 
	C253.160583,1120.102173 252.433823,1119.719727 251.707062,1119.337402 
	C251.707062,1119.337402 251.673019,1119.282104 251.793732,1118.927124 
	C252.408325,1117.715698 252.794785,1116.770020 253.417130,1116.020142 
	C255.001923,1114.110840 254.745834,1110.338013 259.248535,1111.447021 
	C263.324249,1112.450928 265.394958,1114.119751 265.154053,1118.479004 
	C265.082977,1119.764771 266.018921,1121.106079 266.729553,1123.077148 
	C270.589752,1119.412109 275.037170,1117.052979 273.119843,1111.003906 
	C272.753540,1109.848389 273.336853,1108.391846 273.836548,1107.207031 
	C277.462311,1109.750488 280.733551,1112.160889 283.593414,1114.677734 
	C281.714447,1116.134033 280.246826,1117.483887 277.644623,1119.877563 
	C281.785828,1121.939697 284.734253,1123.407837 287.682648,1124.876099 
	C288.571991,1122.936768 289.461334,1120.997559 290.702759,1119.168945 
	C311.497925,1131.591431 331.941010,1143.903442 352.384094,1156.215332 
z"/>
<path fill="#4496FB" opacity="1.000000" stroke="none" 
	d="
M94.867683,903.554688 
	C93.671242,903.999023 91.828247,904.099182 91.379898,904.941589 
	C87.539604,912.157410 80.870125,912.077820 73.709183,911.991333 
	C72.258606,910.009460 71.239647,908.032043 70.615257,905.610962 
	C74.829895,901.584473 78.649948,898.001770 82.470009,894.419006 
	C82.181480,893.924194 81.892960,893.429382 81.604431,892.934570 
	C80.607964,892.725830 78.837509,892.140747 78.728935,892.363953 
	C76.407234,897.138062 72.466515,896.957214 68.150917,896.249268 
	C67.524506,896.146484 66.674240,897.408386 65.927551,898.038818 
	C59.005913,882.705505 52.018681,867.401245 45.203236,852.020874 
	C43.195339,847.489685 41.673538,842.743103 40.049187,837.372192 
	C42.693005,835.765930 45.222889,834.900085 47.737835,833.992798 
	C49.204037,833.463806 51.496098,833.249023 51.949226,832.236328 
	C53.707085,828.307861 57.186356,828.461670 60.659729,828.131226 
	C68.625725,846.580933 76.369331,864.771240 83.796097,883.114624 
	C81.316368,888.230835 84.912994,894.897095 90.584190,896.063599 
	C92.208054,898.675415 93.537865,901.115051 94.867683,903.554688 
z"/>
<path fill="#6083FC" opacity="1.000000" stroke="none" 
	d="
M273.482056,1107.074097 
	C273.336853,1108.391846 272.753540,1109.848389 273.119843,1111.003906 
	C275.037170,1117.052979 270.589752,1119.412109 266.729553,1123.077148 
	C266.018921,1121.106079 265.082977,1119.764771 265.154053,1118.479004 
	C265.394958,1114.119751 263.324249,1112.450928 259.248535,1111.447021 
	C254.745834,1110.338013 255.001923,1114.110840 253.417130,1116.020142 
	C252.794785,1116.770020 252.408325,1117.715698 251.764725,1118.941650 
	C243.897629,1113.404785 235.961456,1107.759766 228.517517,1101.526733 
	C218.893509,1093.468262 209.662506,1084.940674 200.119263,1076.312500 
	C203.006531,1072.820435 205.955917,1069.548462 209.095154,1066.470093 
	C211.248703,1064.358276 213.666092,1062.515381 216.319305,1060.331055 
	C235.609436,1075.764526 254.545761,1091.419312 273.482056,1107.074097 
z"/>
<path fill="#35A3FC" opacity="1.000000" stroke="none" 
	d="
M7.788562,713.553223 
	C8.705820,711.635681 9.931581,710.254089 10.564545,708.640076 
	C12.021303,704.925232 14.588516,703.033386 18.479380,702.201355 
	C21.783194,701.494873 24.926735,700.039001 28.596066,699.355896 
	C29.554314,703.252319 29.933590,706.731079 30.581865,710.158875 
	C33.977787,728.114868 37.441856,746.057983 40.518539,764.009827 
	C39.664066,764.091492 38.830612,764.027893 38.732185,764.266907 
	C35.493549,772.132324 24.894157,775.023926 24.693687,784.968811 
	C24.686646,785.318176 23.694639,785.647644 23.161701,785.986389 
	C20.699913,776.441956 17.865313,766.974854 15.863896,757.334839 
	C12.877016,742.948425 10.477322,728.440125 7.788562,713.553223 
z"/>
<path fill="#3F9AFB" opacity="1.000000" stroke="none" 
	d="
M23.183329,786.366943 
	C23.694639,785.647644 24.686646,785.318176 24.693687,784.968811 
	C24.894157,775.023926 35.493549,772.132324 38.732185,764.266907 
	C38.830612,764.027893 39.664066,764.091492 40.668034,764.280396 
	C42.464893,769.318420 43.598873,774.136414 45.059315,778.853394 
	C50.124100,795.211853 55.302296,811.535217 60.437347,827.871887 
	C57.186356,828.461670 53.707085,828.307861 51.949226,832.236328 
	C51.496098,833.249023 49.204037,833.463806 47.737835,833.992798 
	C45.222889,834.900085 42.693005,835.765930 39.997509,837.010925 
	C34.285400,820.497559 28.745176,803.622498 23.183329,786.366943 
M55.017933,816.655762 
	C54.343784,816.122925 53.669636,815.590027 51.904289,814.194641 
	C53.400791,818.804626 54.365795,821.777405 55.330799,824.750122 
	C55.950939,824.541809 56.571079,824.333496 57.191219,824.125183 
	C56.536621,821.875732 55.882019,819.626221 55.017933,816.655762 
M51.798241,809.393494 
	C51.794025,809.786377 51.789810,810.179321 51.785595,810.572205 
	C51.948624,810.573853 52.253357,810.586365 52.254196,810.575500 
	C52.284351,810.184509 52.286160,809.791260 51.798241,809.393494 
z"/>
<path fill="#4B90FB" opacity="1.000000" stroke="none" 
	d="
M66.032196,898.364624 
	C66.674240,897.408386 67.524506,896.146484 68.150917,896.249268 
	C72.466515,896.957214 76.407234,897.138062 78.728935,892.363953 
	C78.837509,892.140747 80.607964,892.725830 81.604431,892.934570 
	C81.892960,893.429382 82.181480,893.924194 82.470009,894.419006 
	C78.649948,898.001770 74.829895,901.584473 70.554146,905.239014 
	C68.777916,903.104065 67.457375,900.897217 66.032196,898.364624 
z"/>
<path fill="#7277FB" opacity="1.000000" stroke="none" 
	d="
M326.174377,1168.383545 
	C327.787262,1163.275635 332.133728,1164.497437 335.048828,1165.465698 
	C339.043823,1166.793091 336.119629,1170.441284 336.031921,1173.508301 
	C332.817871,1172.150146 329.603485,1170.393677 326.174377,1168.383545 
z"/>
<path fill="#6083FC" opacity="1.000000" stroke="none" 
	d="
M263.069977,1128.445557 
	C263.904327,1126.941406 264.882812,1125.721313 266.611237,1123.566040 
	C266.774506,1126.329224 266.887482,1128.241455 266.999634,1130.575928 
	C265.737213,1130.241943 264.475647,1129.485718 263.069977,1128.445557 
z"/>
<path fill="#6083FC" opacity="1.000000" stroke="none" 
	d="
M251.796021,1119.628174 
	C252.433823,1119.719727 253.160583,1120.102173 253.908081,1120.844482 
	C253.247528,1120.776001 252.566238,1120.347534 251.796021,1119.628174 
z"/>
<path fill="#07BEFC" opacity="1.000000" stroke="none" 
	d="
M439.013367,28.944324 
	C442.040680,27.950403 445.067993,26.956482 448.834900,26.020195 
	C452.252838,27.698505 454.908936,29.357668 457.616547,30.927891 
	C459.856201,32.226715 462.050934,34.172714 464.451477,34.510509 
	C470.147186,35.311974 471.979279,39.048351 472.677124,43.970001 
	C470.741272,44.458488 469.129395,44.795376 467.162170,45.112885 
	C466.207306,45.386833 465.607849,45.680164 464.681610,46.166103 
	C452.824738,50.086685 441.204010,53.557728 429.780457,57.587696 
	C383.562164,73.892403 340.132660,95.754784 299.274567,122.863525 
	C247.981857,156.895462 202.485367,197.342896 163.455627,244.927231 
	C151.459946,259.552155 140.480499,275.010651 128.898163,289.797058 
	C127.991669,289.260803 127.222725,289.014893 126.453781,288.768982 
	C127.094780,289.565826 127.735786,290.362732 128.274963,291.476440 
	C127.387894,292.860840 126.602676,293.928436 125.427597,294.997559 
	C119.407631,294.559875 119.165237,294.068390 122.185478,289.263916 
	C123.942673,286.468658 125.801659,283.727783 127.375458,280.832306 
	C127.887291,279.890594 127.641075,278.536896 127.709068,277.748596 
	C122.166893,277.068420 117.299339,276.726807 113.794754,272.574127 
	C121.895447,261.471497 129.739380,250.170181 138.146576,239.304688 
	C160.391525,210.555313 185.261063,184.187576 212.357025,159.996048 
	C250.100830,126.298073 291.216461,97.319862 335.657440,73.046158 
	C366.816406,56.027096 399.331848,42.203777 432.858795,30.659159 
	C433.794220,30.337057 434.766846,30.122814 436.458496,29.880894 
	C437.801056,29.583788 438.407196,29.264057 439.013367,28.944324 
M446.476105,48.686348 
	C447.022034,49.024471 447.567963,49.362595 448.113892,49.700714 
	C448.248444,49.426937 448.382996,49.153160 448.517548,48.879387 
	C447.982941,48.674667 447.448334,48.469952 446.476105,48.686348 
z"/>
<path fill="#1AB4FC" opacity="1.000000" stroke="none" 
	d="
M42.032810,486.009888 
	C39.236881,484.080231 36.834549,483.879547 34.417995,486.899323 
	C33.245678,488.364227 31.298738,489.424347 29.489254,490.070526 
	C28.625792,490.378876 27.003199,489.565125 26.187199,488.779205 
	C24.789244,487.432770 23.754774,485.708954 22.567657,484.143616 
	C21.599419,485.800110 20.665565,487.478485 19.636564,489.096344 
	C19.406214,489.458527 18.842581,489.608734 18.037987,489.870728 
	C21.420454,475.306885 24.539745,460.517700 29.136570,446.203033 
	C35.217030,427.268250 42.454124,408.704895 49.609596,390.068909 
	C54.568329,395.090118 55.361309,395.101044 62.208847,390.206512 
	C63.785332,391.414520 65.408249,392.658142 66.883698,393.788757 
	C69.140564,390.899139 71.547066,388.578613 72.988861,385.763947 
	C74.515800,382.783051 74.826492,379.184509 76.313820,376.174652 
	C76.772774,375.245911 79.347015,375.362457 80.924103,375.360474 
	C72.071655,398.304352 62.814438,420.731659 54.585213,443.530029 
	C49.580944,457.393951 46.163223,471.830536 42.032810,486.009888 
z"/>
<path fill="#0DBDFC" opacity="1.000000" stroke="none" 
	d="
M473.001099,43.818401 
	C471.979279,39.048351 470.147186,35.311974 464.451477,34.510509 
	C462.050934,34.172714 459.856201,32.226715 457.616547,30.927891 
	C454.908936,29.357668 452.252838,27.698505 449.211853,26.008991 
	C467.760559,21.006041 486.562012,15.584627 505.617706,11.291417 
	C520.962769,7.834202 536.615112,5.740846 552.553467,3.070547 
	C551.250671,5.533473 549.525513,7.968219 547.308472,11.097075 
	C548.401123,14.063354 550.246582,17.902758 551.197021,21.952246 
	C552.364807,26.928118 555.700928,26.110256 559.140076,25.821251 
	C561.895142,25.589731 564.664124,25.523853 567.320129,25.782642 
	C561.295959,26.948765 555.316467,27.398155 549.472046,28.539738 
	C523.960266,33.522945 498.487823,38.707161 473.001099,43.818401 
z"/>
<path fill="#0DBDFC" opacity="1.000000" stroke="none" 
	d="
M113.526047,272.795349 
	C117.299339,276.726807 122.166893,277.068420 127.709068,277.748596 
	C127.641075,278.536896 127.887291,279.890594 127.375458,280.832306 
	C125.801659,283.727783 123.942673,286.468658 122.185478,289.263916 
	C119.165237,294.068390 119.407631,294.559875 125.352112,295.325928 
	C121.748779,301.836121 117.635139,307.905334 113.952576,314.225708 
	C105.267403,329.132080 96.787613,344.158081 88.157898,358.736084 
	C83.932365,352.407623 82.021492,344.667725 74.757019,341.570374 
	C73.042053,343.084595 71.420143,344.516663 69.798233,345.948700 
	C82.233009,320.415497 97.304855,296.453644 113.526047,272.795349 
z"/>
<path fill="#1AB9FD" opacity="1.000000" stroke="none" 
	d="
M69.569252,346.114105 
	C71.420143,344.516663 73.042053,343.084595 74.757019,341.570374 
	C82.021492,344.667725 83.932365,352.407623 88.127106,358.717834 
	C88.163162,359.099243 88.232193,359.087402 87.931061,359.220825 
	C87.466812,359.963440 87.303703,360.572632 87.123985,361.127289 
	C87.107376,361.072754 87.221230,361.079010 86.922775,361.216614 
	C86.462807,361.962677 86.301277,362.571136 86.120605,363.126282 
	C86.101456,363.072998 86.201828,363.125397 85.810318,363.145935 
	C85.067841,364.544128 84.716873,365.921814 84.375175,367.238037 
	C84.384445,367.176544 84.466522,367.269958 84.114784,367.332520 
	C83.645172,368.037262 83.527306,368.679474 83.428421,369.341278 
	C83.447418,369.360870 83.465401,369.412384 83.255653,369.346588 
	C82.913300,369.331116 82.780685,369.381439 82.648071,369.431763 
	C82.821480,369.630768 82.994881,369.829712 83.139130,370.373169 
	C82.390900,372.145233 81.671822,373.572815 80.952728,375.000427 
	C79.347015,375.362457 76.772774,375.245911 76.313820,376.174652 
	C74.826492,379.184509 74.515800,382.783051 72.988861,385.763947 
	C71.547066,388.578613 69.140564,390.899139 66.883698,393.788757 
	C65.408249,392.658142 63.785332,391.414520 62.208847,390.206512 
	C55.361309,395.101044 54.568329,395.090118 49.848988,389.791382 
	C54.529392,378.441406 59.385914,367.455963 64.861008,356.204102 
	C67.326385,353.546265 72.090263,352.309113 68.684113,347.839142 
	C68.902832,347.319275 69.121552,346.799377 69.569252,346.114105 
z"/>
<path fill="#0DBDFC" opacity="1.000000" stroke="none" 
	d="
M68.416702,348.053101 
	C72.090263,352.309113 67.326385,353.546265 65.112656,355.981445 
	C65.880257,353.439178 67.014778,350.853088 68.416702,348.053101 
z"/>
<path fill="#0DBDFC" opacity="1.000000" stroke="none" 
	d="
M438.662537,28.941601 
	C438.407196,29.264057 437.801056,29.583788 436.826569,29.879143 
	C437.076050,29.549473 437.693878,29.244173 438.662537,28.941601 
z"/>
<path fill="#30A8FC" opacity="1.000000" stroke="none" 
	d="
M2.730907,590.832520 
	C2.936765,590.942566 2.916716,591.211609 2.727499,591.651855 
	C2.397583,591.565186 2.379806,591.287964 2.730907,590.832520 
z"/>
<path fill="#8271FA" opacity="1.000000" stroke="none" 
	d="
M1248.005005,540.577881 
	C1241.440674,539.361572 1239.228271,543.678833 1237.199463,548.537292 
	C1236.661743,549.825073 1235.249756,550.747803 1234.239258,551.838196 
	C1233.289551,550.784973 1231.494629,549.701416 1231.531128,548.683594 
	C1231.725830,543.258362 1229.134644,539.476685 1224.682739,535.809204 
	C1222.217529,524.709717 1220.946777,513.906616 1218.143066,503.517242 
	C1210.963867,476.914612 1203.102905,450.496002 1195.871094,424.092163 
	C1199.103271,426.193481 1201.978638,428.206421 1205.241821,430.490784 
	C1207.563843,422.799500 1213.353882,423.016296 1219.032837,423.003387 
	C1226.027588,447.383850 1233.513672,471.637939 1239.829956,496.192932 
	C1243.536011,510.600739 1245.380127,525.487488 1248.005005,540.577881 
z"/>
<path fill="#7277FB" opacity="1.000000" stroke="none" 
	d="
M1219.014160,422.622070 
	C1213.353882,423.016296 1207.563843,422.799500 1205.241821,430.490784 
	C1201.978638,428.206421 1199.103271,426.193481 1195.679321,423.820007 
	C1192.199585,416.028412 1189.647583,408.419708 1186.266602,401.199219 
	C1175.543579,378.298492 1164.511108,355.542633 1153.807129,332.377136 
	C1156.106323,332.290253 1158.439819,332.051971 1160.240845,332.919281 
	C1165.440918,335.423492 1169.243652,334.249786 1171.486328,329.353577 
	C1172.134888,327.937775 1173.937622,327.050720 1175.211304,325.921204 
	C1182.316406,339.593506 1190.063843,352.977295 1196.366455,367.009979 
	C1204.513306,385.149078 1211.505859,403.806519 1219.014160,422.622070 
z"/>
<path fill="#6083FC" opacity="1.000000" stroke="none" 
	d="
M1048.636719,162.939819 
	C1057.437500,171.221161 1066.872192,178.934952 1074.902710,187.905685 
	C1090.173950,204.964767 1104.649292,222.736755 1119.423462,240.239273 
	C1120.142822,241.091400 1120.561035,242.197571 1120.856812,243.735626 
	C1116.722046,250.881943 1112.849854,257.478058 1108.691162,263.897644 
	C1107.107666,262.000366 1105.905151,260.198059 1104.499512,258.571228 
	C1085.661255,236.767792 1066.794434,214.988983 1047.957764,192.815308 
	C1051.397217,186.474106 1054.813599,180.521576 1058.614624,173.898972 
	C1056.860352,172.540436 1054.832031,170.144257 1052.266724,169.187805 
	C1048.917969,167.939209 1047.862549,166.183655 1048.636719,162.939819 
z"/>
<path fill="#3F9AFB" opacity="1.000000" stroke="none" 
	d="
M849.187073,39.935890 
	C853.898621,41.370304 858.824646,42.326141 863.283569,44.324284 
	C880.086609,51.854214 896.778015,59.638168 913.423218,67.513008 
	C919.015930,70.158913 924.346375,73.359177 929.749512,76.752731 
	C924.994629,83.203346 920.287048,89.207306 915.246582,95.141891 
	C906.183960,90.650780 897.634399,85.818283 888.687317,81.891914 
	C869.410522,73.432472 849.929260,65.438911 830.852112,57.071102 
	C833.559753,54.015537 837.370361,51.438065 838.038147,48.210361 
	C839.433167,41.467670 844.408508,41.202950 849.187073,39.935890 
z"/>
<path fill="#687EFB" opacity="1.000000" stroke="none" 
	d="
M1108.977783,264.074188 
	C1112.849854,257.478058 1116.722046,250.881943 1120.892090,244.092529 
	C1124.341431,247.659042 1127.938477,251.132278 1130.570190,255.226044 
	C1145.517578,278.476868 1160.234131,301.876007 1175.120361,325.572968 
	C1173.937622,327.050720 1172.134888,327.937775 1171.486328,329.353577 
	C1169.243652,334.249786 1165.440918,335.423492 1160.240845,332.919281 
	C1158.439819,332.051971 1156.106323,332.290253 1153.560059,332.114899 
	C1150.904053,328.493225 1148.838135,324.692719 1146.481323,321.081940 
	C1134.696411,303.025787 1122.835449,285.019379 1110.928467,266.803711 
	C1110.721069,266.363434 1110.527710,266.175049 1110.048096,265.846710 
	C1109.539551,265.122467 1109.258667,264.598328 1108.977783,264.074188 
z"/>
<path fill="#4B90FB" opacity="1.000000" stroke="none" 
	d="
M915.579468,95.211273 
	C920.287048,89.207306 924.994629,83.203346 930.012573,77.009918 
	C945.393799,85.890846 960.659058,94.657524 975.467896,104.137238 
	C985.516479,110.569725 994.924316,118.003052 1004.350830,125.390900 
	C1002.292053,127.034584 1000.252991,128.037857 998.773438,129.578476 
	C996.958740,131.468216 995.926147,135.234680 993.998352,135.659088 
	C989.805542,136.582092 989.258911,139.141846 988.536255,142.240112 
	C977.463989,134.628143 966.931152,126.811829 955.921692,119.737183 
	C942.686218,111.232155 929.045044,103.358391 915.579468,95.211273 
z"/>
<path fill="#2CABFC" opacity="1.000000" stroke="none" 
	d="
M680.999329,24.755295 
	C678.255737,23.871241 675.512146,22.987190 672.768555,22.103140 
	C672.691589,21.780790 672.614563,21.458441 672.537537,21.136093 
	C676.179077,20.983389 679.856995,20.444860 683.452087,20.784117 
	C687.211853,21.138910 690.327393,20.492050 689.843018,16.311691 
	C689.166931,10.476730 692.639648,8.058226 696.699036,5.631994 
	C697.509583,5.147528 698.161743,4.397914 698.945801,3.436224 
	C710.720215,4.492816 722.509644,5.443145 734.132080,7.390021 
	C747.628479,9.650798 760.978394,12.785781 774.557495,16.088039 
	C771.802917,18.471466 768.432617,19.862747 766.069519,22.250751 
	C762.643494,25.712839 759.945374,29.895266 756.814392,33.928074 
	C759.166565,35.370529 760.992493,36.490314 762.396973,37.573296 
	C734.983398,33.276093 707.991394,29.015696 680.999329,24.755295 
z"/>
<path fill="#35A3FC" opacity="1.000000" stroke="none" 
	d="
M762.818481,37.610100 
	C760.992493,36.490314 759.166565,35.370529 756.814392,33.928074 
	C759.945374,29.895266 762.643494,25.712839 766.069519,22.250751 
	C768.432617,19.862747 771.802917,18.471466 774.858032,16.327072 
	C791.747009,20.732206 808.502869,25.438763 825.247864,30.183601 
	C825.838074,30.350842 826.320618,30.898039 826.594849,31.623114 
	C825.837646,31.974102 825.325500,31.894255 824.842773,31.980125 
	C823.287109,32.256824 821.742310,32.594593 820.193359,32.908825 
	C820.979553,34.601406 821.345703,36.884911 822.667358,37.824314 
	C824.054565,38.810326 826.641541,39.223560 828.195557,38.606358 
	C830.721008,37.603344 832.832153,35.557335 835.118164,33.951538 
	C839.669250,35.741325 844.220398,37.531124 848.979248,39.628410 
	C844.408508,41.202950 839.433167,41.467670 838.038147,48.210361 
	C837.370361,51.438065 833.559753,54.015537 830.491760,57.050926 
	C807.480164,50.679604 785.149292,44.144852 762.818481,37.610100 
z"/>
<path fill="#5688FB" opacity="1.000000" stroke="none" 
	d="
M988.864624,142.364304 
	C989.258911,139.141846 989.805542,136.582092 993.998352,135.659088 
	C995.926147,135.234680 996.958740,131.468216 998.773438,129.578476 
	C1000.252991,128.037857 1002.292053,127.034584 1004.534058,125.701538 
	C1019.552429,137.860031 1034.119751,150.110016 1048.661865,162.649933 
	C1047.862549,166.183655 1048.917969,167.939209 1052.266724,169.187805 
	C1054.832031,170.144257 1056.860352,172.540436 1058.614624,173.898972 
	C1054.813599,180.521576 1051.397217,186.474106 1047.650635,192.667664 
	C1045.061523,190.699615 1042.912720,188.362854 1040.525513,186.302185 
	C1024.673096,172.617630 1008.769531,158.992218 992.874939,144.963760 
	C991.859375,144.072449 990.851379,143.564972 989.629761,143.024918 
	C989.122864,142.879120 988.938965,142.669769 988.864624,142.364304 
z"/>
<path fill="#3C9FFD" opacity="1.000000" stroke="none" 
	d="
M834.857178,33.684563 
	C832.832153,35.557335 830.721008,37.603344 828.195557,38.606358 
	C826.641541,39.223560 824.054565,38.810326 822.667358,37.824314 
	C821.345703,36.884911 820.979553,34.601406 820.193359,32.908825 
	C821.742310,32.594593 823.287109,32.256824 824.842773,31.980125 
	C825.325500,31.894255 825.837646,31.974102 826.737915,31.964039 
	C829.625000,32.439186 832.110657,32.928383 834.857178,33.684563 
z"/>
<path fill="#010824" opacity="1.000000" stroke="none" 
	d="
M988.536255,142.240112 
	C988.938965,142.669769 989.122864,142.879120 989.789246,143.307709 
	C991.069031,144.197922 991.975769,144.772766 992.882507,145.347595 
	C1008.769531,158.992218 1024.673096,172.617630 1040.525513,186.302185 
	C1042.912720,188.362854 1045.061523,190.699615 1047.627686,193.056335 
	C1066.794434,214.988983 1085.661255,236.767792 1104.499512,258.571228 
	C1105.905151,260.198059 1107.107666,262.000366 1108.691162,263.897644 
	C1109.258667,264.598328 1109.539551,265.122467 1110.072754,266.063019 
	C1110.473145,266.752960 1110.698364,266.924988 1111.001099,266.995483 
	C1122.835449,285.019379 1134.696411,303.025787 1146.481323,321.081940 
	C1148.838135,324.692719 1150.904053,328.493225 1153.351196,332.468506 
	C1164.511108,355.542633 1175.543579,378.298492 1186.266602,401.199219 
	C1189.647583,408.419708 1192.199585,416.028412 1195.322632,423.731628 
	C1203.102905,450.496002 1210.963867,476.914612 1218.143066,503.517242 
	C1220.946777,513.906616 1222.217529,524.709717 1224.344482,535.661865 
	C1229.060669,567.045776 1231.889160,598.229065 1231.875122,629.634583 
	C1231.872681,635.116150 1231.777100,640.597717 1231.817627,646.540955 
	C1231.096558,658.759338 1230.936768,670.606079 1229.333740,682.254211 
	C1225.845825,707.597717 1221.621704,732.839905 1217.579346,758.739197 
	C1217.460205,759.354858 1217.454956,759.836243 1217.455078,759.836243 
	C1217.233276,760.665710 1217.011597,761.495178 1216.837646,762.647522 
	C1216.653564,763.471008 1216.421631,763.971558 1216.096191,764.978577 
	C1216.018921,765.654175 1216.035278,765.823242 1216.051636,765.992310 
	C1210.903076,783.530396 1206.600952,801.374756 1200.394897,818.530273 
	C1192.372070,840.707886 1182.828613,862.335327 1173.819580,884.545959 
	C1172.779297,886.694153 1171.859375,888.496094 1170.748047,890.916016 
	C1169.309082,893.992126 1168.061279,896.450134 1166.813354,898.908081 
	C1128.757446,972.836365 1077.755493,1036.359619 1013.494019,1089.137939 
	C974.842285,1120.882935 932.616882,1147.035034 887.220093,1168.733765 
	C868.484497,1176.441040 850.304565,1184.853149 831.415649,1191.132935 
	C807.446838,1199.101562 782.902527,1205.339233 758.294434,1212.527710 
	C740.965149,1215.550415 724.036316,1219.240845 706.909302,1220.977051 
	C682.992554,1223.401489 658.927856,1224.366699 634.465942,1226.041016 
	C606.972229,1224.183716 579.939148,1222.241333 552.441101,1220.308472 
	C530.485840,1215.996948 508.945465,1211.906006 487.527100,1207.253662 
	C477.487366,1205.072876 467.682892,1201.809082 457.076447,1198.847900 
	C454.256653,1198.052490 452.132141,1197.445190 450.007690,1196.837891 
	C450.007690,1196.837769 449.645905,1196.523071 449.408691,1196.488403 
	C422.057770,1185.550293 394.919098,1174.708252 367.852783,1163.688477 
	C362.787018,1161.626099 358.010956,1158.852173 352.742676,1156.310913 
	C331.941010,1143.903442 311.497925,1131.591431 290.544464,1118.923584 
	C288.024353,1117.235596 286.014557,1115.903442 284.004791,1114.571289 
	C280.733551,1112.160889 277.462311,1109.750488 273.836548,1107.207031 
	C254.545761,1091.419312 235.609436,1075.764526 216.362915,1059.970825 
	C203.334274,1046.750244 190.354034,1033.910522 177.982880,1020.508362 
	C168.647049,1010.394409 160.090454,999.561096 150.946350,988.849243 
	C132.621490,964.767090 115.526909,940.223206 100.900909,914.031555 
	C99.036804,910.693420 97.169220,907.357178 95.085449,903.787354 
	C93.537865,901.115051 92.208054,898.675415 90.544548,895.691528 
	C88.178207,891.085449 86.145561,887.023499 84.112930,882.961548 
	C76.369331,864.771240 68.625725,846.580933 60.659729,828.131226 
	C55.302296,811.535217 50.124100,795.211853 45.059315,778.853394 
	C43.598873,774.136414 42.464893,769.318420 41.031746,764.276123 
	C37.441856,746.057983 33.977787,728.114868 30.581865,710.158875 
	C29.933590,706.731079 29.554314,703.252319 28.929401,699.398987 
	C27.452583,680.977966 26.097305,662.955139 24.694347,644.066345 
	C24.672350,631.464966 24.698032,619.729553 24.723713,607.994080 
	C24.814152,606.928833 24.904593,605.863586 24.922281,604.402222 
	C27.166088,568.984131 31.267292,534.205200 39.042179,499.927887 
	C40.034035,495.555023 41.065323,491.191132 42.055580,486.416504 
	C46.163223,471.830536 49.580944,457.393951 54.585213,443.530029 
	C62.814438,420.731659 72.071655,398.304352 80.924103,375.360504 
	C81.671822,373.572815 82.390900,372.145233 83.280724,370.251526 
	C83.451469,369.785400 83.465401,369.412384 83.465401,369.412384 
	C83.465401,369.412384 83.447418,369.360870 83.670975,369.163269 
	C84.085205,368.400452 84.275864,367.835205 84.466522,367.269958 
	C84.466522,367.269958 84.384445,367.176544 84.642303,367.037018 
	C85.334053,365.640137 85.767937,364.382751 86.201828,363.125397 
	C86.201828,363.125397 86.101456,363.072998 86.408119,362.981995 
	C86.883598,362.286987 87.052406,361.683014 87.221222,361.079010 
	C87.221230,361.079010 87.107376,361.072754 87.412125,360.984222 
	C87.888649,360.292938 88.060417,359.690155 88.232193,359.087402 
	C88.232193,359.087402 88.163162,359.099243 88.193954,359.117493 
	C96.787613,344.158081 105.267403,329.132080 113.952576,314.225708 
	C117.635139,307.905334 121.748779,301.836121 125.741974,295.324371 
	C126.602676,293.928436 127.387894,292.860840 128.470184,291.361633 
	C128.983780,290.689636 129.073273,290.408783 129.035706,290.087433 
	C140.480499,275.010651 151.459946,259.552155 163.455627,244.927231 
	C202.485367,197.342896 247.981857,156.895462 299.274567,122.863525 
	C340.132660,95.754784 383.562164,73.892403 429.780457,57.587696 
	C441.204010,53.557728 452.824738,50.086685 465.024170,46.182121 
	C466.301483,45.714436 466.909515,45.423347 467.517548,45.132259 
	C469.129395,44.795376 470.741272,44.458488 472.677124,43.970001 
	C498.487823,38.707161 523.960266,33.522945 549.472046,28.539738 
	C555.316467,27.398155 561.295959,26.948765 567.611755,26.060665 
	C582.374207,24.974148 596.738281,24.007780 611.554443,22.950401 
	C632.578613,23.337278 653.150574,23.815165 674.488586,24.383419 
	C676.467102,24.507927 677.679565,24.542065 678.892090,24.576197 
	C679.357849,24.670263 679.823608,24.764334 680.644348,24.806852 
	C707.991394,29.015696 734.983398,33.276093 762.396973,37.573296 
	C785.149292,44.144852 807.480164,50.679604 830.171326,57.234528 
	C849.929260,65.438911 869.410522,73.432472 888.687317,81.891914 
	C897.634399,85.818283 906.183960,90.650780 915.246582,95.141899 
	C929.045044,103.358391 942.686218,111.232155 955.921692,119.737183 
	C966.931152,126.811829 977.463989,134.628143 988.536255,142.240112 
M497.152405,587.298889 
	C497.249634,587.586365 497.425323,587.812988 497.554535,588.503296 
	C497.472778,588.663391 497.390991,588.823425 496.657196,589.342102 
	C496.437714,591.113647 496.026550,592.885132 496.026123,594.656738 
	C495.996094,720.778442 495.998657,846.900208 496.000549,973.021912 
	C496.000549,974.354248 495.816071,975.737488 496.120117,977.000000 
	C496.303772,977.762695 497.265045,978.338074 498.105713,979.612732 
	C500.401947,979.963623 502.698212,980.314453 505.912476,980.868225 
	C624.072937,980.865906 742.233398,980.864014 860.393860,980.860718 
	C873.650818,980.860352 882.259399,974.870178 887.046753,962.321716 
	C898.083801,933.392517 909.126038,904.465271 920.151245,875.531555 
	C924.519409,864.068054 928.847961,852.589478 933.488770,840.341248 
	C794.271362,840.341248 655.925049,840.341248 517.489563,840.341248 
	C517.489563,788.699341 517.489563,737.623230 517.489563,686.114197 
	C519.425598,686.114197 521.050293,686.114136 522.674988,686.114197 
	C611.836670,686.120056 700.998352,686.140869 790.159973,686.078064 
	C793.774902,686.075500 797.389343,685.283264 801.735107,684.887756 
	C809.905151,682.449402 815.541504,677.143982 818.919373,669.428833 
	C836.810669,628.563782 854.663574,587.681946 872.761902,546.234802 
	C872.318176,545.831604 871.941284,545.233459 871.420471,545.054871 
	C864.671326,542.740784 857.867554,543.296936 850.834656,543.796326 
	C839.977722,544.567444 829.025635,544.000000 818.113953,544.000000 
	C774.832581,544.000061 731.551270,544.000000 688.269897,544.000000 
	C659.275696,544.000000 630.281433,544.001221 601.287231,543.999084 
	C595.373901,543.998657 589.460510,543.979919 583.547180,543.979797 
	C565.884155,543.979431 548.218445,544.167908 530.559448,543.901367 
	C522.879028,543.785400 520.182434,540.501038 520.028198,532.435974 
	C519.899170,525.692444 520.002502,518.944519 520.002441,512.198547 
	C520.002136,481.038086 519.953308,449.877502 520.046997,418.717316 
	C520.063354,413.260315 520.552734,407.792053 521.117798,402.359589 
	C521.236450,401.218109 522.560791,399.385254 523.480591,399.287140 
	C527.199463,398.890503 530.977356,399.006195 534.733459,399.005951 
	C649.210571,398.998627 763.687744,399.000061 878.164856,398.999390 
	C879.664551,398.999390 881.271667,399.332123 882.637817,398.902466 
	C884.521973,398.309967 886.224243,397.138794 888.634521,395.967987 
	C889.082703,395.963196 889.530823,395.958374 890.415649,396.496094 
	C892.846680,397.508453 894.486633,396.957214 895.563843,393.770386 
	C902.544983,390.196442 907.096802,384.624084 910.182556,377.403717 
	C922.944153,347.542694 935.948547,317.785522 948.829041,287.975220 
	C952.765015,278.865784 956.590088,269.708374 960.716492,259.982147 
	C957.251648,259.982147 954.615784,259.981934 951.979858,259.982178 
	C802.682678,259.996857 653.383545,259.581055 504.089539,260.274048 
	C455.827087,260.498077 419.721222,283.768768 395.936005,325.716339 
	C382.631348,349.180359 380.072327,374.849365 381.769531,401.198578 
	C383.125336,422.247253 390.845123,440.556946 405.567413,455.850128 
	C413.885742,464.491028 421.978058,473.349243 430.190887,482.092010 
	C440.114868,492.656311 449.702057,503.567810 460.071503,513.676086 
	C479.001770,532.129639 491.463745,553.968994 496.508057,580.331238 
	C496.993347,580.906311 497.478607,581.481384 497.662811,582.701233 
	C497.396088,583.800842 497.129395,584.900513 496.578278,586.238647 
	C496.765350,586.464783 496.952423,586.690979 497.047638,586.959229 
	C497.047638,586.959229 497.088409,586.866760 497.152405,587.298889 
M423.497314,537.476624 
	C423.497314,537.476624 423.456299,537.361694 423.316528,536.979126 
	C423.160645,536.734924 422.939606,536.590210 422.539307,536.435852 
	C422.539307,536.435852 422.442535,536.311157 422.308563,535.957642 
	C422.160553,535.734802 421.954712,535.600647 421.618927,535.366089 
	C421.618927,535.366089 421.511444,535.194580 421.222809,534.646179 
	C405.714111,518.421814 390.205414,502.197418 374.045715,485.291962 
	C374.045715,504.549927 374.045715,522.774292 373.877594,541.923157 
	C373.935211,549.281189 373.992859,556.639160 373.875763,564.920959 
	C373.929871,577.279663 373.983978,589.638306 373.863831,602.920898 
	C373.927551,618.946655 373.991241,634.972351 373.880432,651.921753 
	C373.934540,666.947449 373.988617,681.973145 373.869202,697.922668 
	C373.923798,711.947510 373.978424,725.972290 373.858643,740.921387 
	C373.916687,750.948425 373.974731,760.975403 373.865204,771.926758 
	C373.922974,782.950378 373.980743,793.973938 373.874207,805.922974 
	C373.932404,818.281982 373.990570,830.640991 373.884705,843.925110 
	C373.774658,857.754883 373.391998,871.607971 377.431213,885.923340 
	C381.583313,896.357971 385.735382,906.792664 390.023376,917.895508 
	C396.927124,926.637085 403.830841,935.378723 411.036469,944.733826 
	C423.289337,956.997620 437.824341,965.448730 454.593079,971.383728 
	C454.593079,968.360046 454.593079,966.079102 454.792480,963.018738 
	C454.739868,961.409912 454.687256,959.801086 454.813080,957.296204 
	C454.757690,955.475403 454.702271,953.654541 454.838928,951.117249 
	C454.765350,950.137024 454.691772,949.156860 454.792572,947.232605 
	C454.726807,940.112244 454.661041,932.991821 454.794952,925.099487 
	C454.724426,923.778137 454.653900,922.456726 454.761230,920.361206 
	C454.702637,919.574036 454.644043,918.786865 454.789581,917.177551 
	C454.725677,915.494385 454.661774,913.811218 454.768280,911.401489 
	C454.710480,910.910645 454.652679,910.419861 454.746216,909.499939 
	C454.746216,909.499939 454.593109,909.071533 454.773254,908.157715 
	C454.696594,904.447632 454.619904,900.737610 454.753326,896.113159 
	C454.696533,891.371338 454.639740,886.629578 454.779205,881.044678 
	C454.692657,878.744507 454.606110,876.444275 454.715210,873.268066 
	C454.659119,871.185242 454.603027,869.102356 454.754242,866.102295 
	C454.687225,856.737061 454.620209,847.371826 454.752869,837.089600 
	C454.684204,827.061340 454.615570,817.033081 454.744263,806.085999 
	C454.683289,796.057007 454.622314,786.028015 454.761383,775.081543 
	C454.693787,767.379333 454.626190,759.677063 454.754456,751.061157 
	C454.697357,738.374084 454.640228,725.686951 454.776459,712.080872 
	C454.720734,704.674377 454.665039,697.267822 454.802521,689.024780 
	C454.729706,686.739624 454.656891,684.454407 454.766785,681.234436 
	C454.693542,676.822021 454.620300,672.409546 454.738342,667.078125 
	C454.684021,653.719055 454.629700,640.360046 454.766449,626.108521 
	C454.703094,623.370605 454.639740,620.632629 454.729309,617.500977 
	C454.729309,617.500977 454.579742,617.105896 454.769836,616.173950 
	C454.708466,609.741272 454.647064,603.308533 454.728943,596.352112 
	C454.566467,596.041687 454.403992,595.731262 454.391418,594.601501 
	C453.409424,583.697449 451.028473,573.215393 444.820099,563.172363 
	C440.688812,557.770874 436.557495,552.369446 432.138336,546.329163 
	C430.245392,544.416382 428.352478,542.503662 426.300995,540.628235 
	C426.300995,540.628235 426.447113,540.606445 426.236633,540.058899 
	C425.675629,539.540771 425.114655,539.022583 424.467010,538.550598 
	C424.467010,538.550598 424.463440,538.452515 424.312347,538.034485 
	C424.147614,537.765747 423.910522,537.601135 423.497314,537.476624 
z"/>
<path fill="#2CABFC" opacity="1.000000" stroke="none" 
	d="
M678.585632,24.385561 
	C677.679565,24.542065 676.467102,24.507927 674.924438,24.295380 
	C675.822571,24.142956 677.050903,24.168940 678.585632,24.385561 
z"/>
<path fill="#26AEFC" opacity="1.000000" stroke="none" 
	d="
M24.351938,608.116882 
	C24.698032,619.729553 24.672350,631.464966 24.566082,643.680542 
	C23.991919,643.027161 23.082296,641.898315 23.069847,640.759583 
	C22.959148,630.632690 22.987520,620.503967 23.050087,610.376221 
	C23.054497,609.662170 23.656199,608.951782 24.351938,608.116882 
z"/>
<path fill="#9E61FA" opacity="1.000000" stroke="none" 
	d="
M1167.129395,899.040039 
	C1168.061279,896.450134 1169.309082,893.992126 1170.763794,891.269775 
	C1172.177979,891.145935 1173.385254,891.286438 1175.786621,891.565979 
	C1172.417847,894.530518 1172.774170,899.606567 1167.129395,899.040039 
z"/>
<path fill="#9968FB" opacity="1.000000" stroke="none" 
	d="
M1216.208496,765.922119 
	C1216.035278,765.823242 1216.018921,765.654175 1216.123779,765.261047 
	C1216.357788,765.221619 1216.490479,765.398193 1216.569092,765.596252 
	C1216.589111,765.646545 1216.437988,765.764893 1216.208496,765.922119 
z"/>
<path fill="#9E61FA" opacity="1.000000" stroke="none" 
	d="
M1217.684326,759.827637 
	C1217.454956,759.836243 1217.460205,759.354858 1217.603271,759.161377 
	C1217.931885,759.177185 1218.117676,759.386414 1218.303345,759.595703 
	C1218.173462,759.670166 1218.043457,759.744568 1217.684326,759.827637 
z"/>
<path fill="#7277FB" opacity="1.000000" stroke="none" 
	d="
M450.008179,1197.259888 
	C452.132141,1197.445190 454.256653,1198.052490 456.690796,1198.853638 
	C455.366852,1199.681763 453.753143,1200.675293 452.089539,1200.767456 
	C451.454865,1200.802490 450.705688,1198.771362 450.008179,1197.259888 
z"/>
<path fill="#6083FC" opacity="1.000000" stroke="none" 
	d="
M283.593414,1114.677734 
	C286.014557,1115.903442 288.024353,1117.235596 290.192413,1118.812988 
	C289.461334,1120.997559 288.571991,1122.936768 287.682648,1124.876099 
	C284.734253,1123.407837 281.785828,1121.939697 277.644623,1119.877563 
	C280.246826,1117.483887 281.714447,1116.134033 283.593414,1114.677734 
z"/>
<path fill="#4B90FB" opacity="1.000000" stroke="none" 
	d="
M83.796082,883.114624 
	C86.145561,887.023499 88.178207,891.085449 90.250496,895.519409 
	C84.912994,894.897095 81.316368,888.230835 83.796082,883.114624 
z"/>
<path fill="#4496FB" opacity="1.000000" stroke="none" 
	d="
M55.122673,817.016235 
	C55.882019,819.626221 56.536621,821.875732 57.191219,824.125183 
	C56.571079,824.333496 55.950939,824.541809 55.330799,824.750122 
	C54.365795,821.777405 53.400791,818.804626 51.904289,814.194641 
	C53.669636,815.590027 54.343784,816.122925 55.122673,817.016235 
z"/>
<path fill="#4496FB" opacity="1.000000" stroke="none" 
	d="
M52.045067,809.395935 
	C52.286160,809.791260 52.284351,810.184509 52.254196,810.575500 
	C52.253357,810.586365 51.948624,810.573853 51.785595,810.572205 
	C51.789810,810.179321 51.794025,809.786377 52.045067,809.395935 
z"/>
<path fill="#0DBDFC" opacity="1.000000" stroke="none" 
	d="
M128.898163,289.797058 
	C129.073273,290.408783 128.983780,290.689636 128.572021,291.044800 
	C127.735786,290.362732 127.094780,289.565826 126.453781,288.768982 
	C127.222725,289.014893 127.991669,289.260803 128.898163,289.797058 
z"/>
<path fill="#0DBDFC" opacity="1.000000" stroke="none" 
	d="
M446.694916,48.475792 
	C447.448334,48.469952 447.982941,48.674667 448.517548,48.879387 
	C448.382996,49.153160 448.248444,49.426937 448.113892,49.700714 
	C447.567963,49.362595 447.022034,49.024471 446.694916,48.475792 
z"/>
<path fill="#0DBDFC" opacity="1.000000" stroke="none" 
	d="
M467.162170,45.112881 
	C466.909515,45.423347 466.301483,45.714436 465.350952,45.989510 
	C465.607849,45.680164 466.207306,45.386833 467.162170,45.112881 
z"/>
<path fill="#0DBDFC" opacity="1.000000" stroke="none" 
	d="
M85.810318,363.145935 
	C85.767937,364.382751 85.334053,365.640137 84.633034,367.098511 
	C84.716873,365.921814 85.067841,364.544128 85.810318,363.145935 
z"/>
<path fill="#0DBDFC" opacity="1.000000" stroke="none" 
	d="
M84.114784,367.332520 
	C84.275864,367.835205 84.085205,368.400452 83.651985,369.143677 
	C83.527306,368.679474 83.645172,368.037262 84.114784,367.332520 
z"/>
<path fill="#0DBDFC" opacity="1.000000" stroke="none" 
	d="
M87.931061,359.220825 
	C88.060417,359.690155 87.888649,360.292938 87.428734,361.038757 
	C87.303703,360.572632 87.466812,359.963440 87.931061,359.220825 
z"/>
<path fill="#0DBDFC" opacity="1.000000" stroke="none" 
	d="
M86.922775,361.216614 
	C87.052406,361.683014 86.883598,362.286987 86.427261,363.035278 
	C86.301277,362.571136 86.462807,361.962677 86.922775,361.216614 
z"/>
<path fill="#0DBDFC" opacity="1.000000" stroke="none" 
	d="
M83.255653,369.346588 
	C83.465401,369.412384 83.451469,369.785400 83.309875,369.907043 
	C82.994881,369.829712 82.821480,369.630768 82.648071,369.431763 
	C82.780685,369.381439 82.913300,369.331116 83.255653,369.346588 
z"/>
<path fill="#6083FC" opacity="1.000000" stroke="none" 
	d="
M1110.928467,266.803711 
	C1110.698364,266.924988 1110.473145,266.752960 1110.300537,266.263092 
	C1110.527710,266.175049 1110.721069,266.363434 1110.928467,266.803711 
z"/>
<path fill="#4B90FB" opacity="1.000000" stroke="none" 
	d="
M992.874939,144.963776 
	C991.975769,144.772766 991.069031,144.197922 990.002808,143.340271 
	C990.851379,143.564972 991.859375,144.072449 992.874939,144.963776 
z"/>
<path fill="#FCFCFC" opacity="1.000000" stroke="none" 
	d="
M496.862671,586.000122 
	C497.129395,584.900513 497.396088,583.800842 497.915100,582.092896 
	C497.722931,580.940552 497.278442,580.396545 496.833923,579.852539 
	C491.463745,553.968994 479.001770,532.129639 460.071503,513.676086 
	C449.702057,503.567810 440.114868,492.656311 430.190887,482.092010 
	C421.978058,473.349243 413.885742,464.491028 405.567413,455.850128 
	C390.845123,440.556946 383.125336,422.247253 381.769531,401.198578 
	C380.072327,374.849365 382.631348,349.180359 395.936005,325.716339 
	C419.721222,283.768768 455.827087,260.498077 504.089539,260.274048 
	C653.383545,259.581055 802.682678,259.996857 951.979858,259.982178 
	C954.615784,259.981934 957.251648,259.982147 960.716492,259.982147 
	C956.590088,269.708374 952.765015,278.865784 948.829041,287.975220 
	C935.948547,317.785522 922.944153,347.542694 910.182556,377.403717 
	C907.096802,384.624084 902.544983,390.196442 894.942932,393.996643 
	C892.874329,394.799774 891.426697,395.376678 889.979004,395.953583 
	C889.530823,395.958374 889.082703,395.963196 887.852661,396.040161 
	C884.407166,396.201385 881.743530,396.368530 879.079834,396.368378 
	C761.253845,396.361755 643.427856,396.340363 525.601868,396.320831 
	C522.862671,396.320374 520.123535,396.320801 517.435791,396.320801 
	C517.435791,446.838104 517.435791,496.427704 517.435791,546.456055 
	C519.197449,546.456055 520.662964,546.456299 522.128418,546.455994 
	C637.120789,546.430969 752.113159,546.403931 867.105530,546.398560 
	C868.913574,546.398438 870.721680,546.664185 872.529785,546.805908 
	C854.663574,587.681946 836.810669,628.563782 818.919373,669.428833 
	C815.541504,677.143982 809.905151,682.449402 801.433838,684.543579 
	C802.367249,683.176758 803.601990,682.154114 804.564026,681.357300 
	C802.127441,680.710144 800.036743,679.852661 797.888367,679.668884 
	C795.725037,679.483765 793.088562,679.274902 791.389771,680.293945 
	C786.943665,682.961243 782.513000,683.745789 777.563965,682.380066 
	C776.308533,682.033569 774.929077,681.990723 773.613525,682.031372 
	C764.242615,682.320984 754.875610,682.838562 745.503296,682.956360 
	C732.487610,683.119995 719.468445,682.997498 706.450745,682.997498 
	C691.266113,682.997498 676.080933,683.068787 660.897217,682.952148 
	C656.605408,682.919189 652.313721,682.013367 648.029175,682.068176 
	C636.078857,682.220764 624.133789,682.849731 612.183777,682.952881 
	C595.975952,683.092834 579.765442,682.906128 563.556091,682.886780 
	C558.198242,682.880371 552.840271,682.977844 547.482300,682.992737 
	C540.236877,683.012878 532.988342,683.114014 525.747742,682.926208 
	C523.714844,682.873535 521.731140,681.747131 519.676208,681.452332 
	C518.120422,681.229187 515.705811,680.929810 515.057739,681.753479 
	C513.856018,683.280945 513.346436,685.574097 513.153503,687.605896 
	C512.990723,689.319458 513.931519,691.110962 513.956421,692.873962 
	C514.058960,700.117737 513.997803,707.363892 513.997681,714.609131 
	C513.997375,728.939026 514.109253,743.270142 513.950745,757.598328 
	C513.870972,764.801453 513.493958,772.015320 512.893982,779.194519 
	C512.351929,785.681519 510.961639,791.935364 512.658936,798.662903 
	C513.771362,803.072510 512.302734,808.133301 512.034180,812.230042 
	C508.087738,811.332031 505.399292,810.720276 502.000000,809.946716 
	C502.000000,805.998657 502.000763,801.547424 501.999847,797.096191 
	C501.998810,792.184570 502.310944,787.246399 501.898651,782.369507 
	C501.543549,778.169006 499.738129,780.271118 498.231445,781.585449 
	C498.201599,754.726807 498.273224,728.277649 498.771332,701.876343 
	C502.498291,701.979309 504.362335,700.225220 503.866760,697.074890 
	C503.406189,694.146851 502.955719,690.525696 498.250305,690.750977 
	C498.142822,660.355286 498.166656,630.367981 498.096069,600.380920 
	C498.087097,596.581177 497.583588,592.782654 497.309204,588.983521 
	C497.390991,588.823425 497.472778,588.663391 497.764099,587.999939 
	C497.678558,587.286682 497.383484,587.076721 497.088409,586.866760 
	C497.088409,586.866760 497.047638,586.959229 497.040588,586.703979 
	C497.033569,586.448730 496.862671,586.000122 496.862671,586.000122 
z"/>
<path fill="#F8F8F8" opacity="1.000000" stroke="none" 
	d="
M498.332916,781.994934 
	C499.738129,780.271118 501.543549,778.169006 501.898651,782.369507 
	C502.310944,787.246399 501.998810,792.184570 501.999847,797.096191 
	C502.000763,801.547424 502.000000,805.998657 502.000000,809.946716 
	C505.399292,810.720276 508.087738,811.332031 512.034180,812.230042 
	C512.302734,808.133301 513.771362,803.072510 512.658936,798.662903 
	C510.961639,791.935364 512.351929,785.681519 512.893982,779.194519 
	C513.493958,772.015320 513.870972,764.801453 513.950745,757.598328 
	C514.109253,743.270142 513.997375,728.939026 513.997681,714.609131 
	C513.997803,707.363892 514.058960,700.117737 513.956421,692.873962 
	C513.931519,691.110962 512.990723,689.319458 513.153503,687.605896 
	C513.346436,685.574097 513.856018,683.280945 515.057739,681.753479 
	C515.705811,680.929810 518.120422,681.229187 519.676208,681.452332 
	C521.731140,681.747131 523.714844,682.873535 525.747742,682.926208 
	C532.988342,683.114014 540.236877,683.012878 547.482300,682.992737 
	C552.840271,682.977844 558.198242,682.880371 563.556091,682.886780 
	C579.765442,682.906128 595.975952,683.092834 612.183777,682.952881 
	C624.133789,682.849731 636.078857,682.220764 648.029175,682.068176 
	C652.313721,682.013367 656.605408,682.919189 660.897217,682.952148 
	C676.080933,683.068787 691.266113,682.997498 706.450745,682.997498 
	C719.468445,682.997498 732.487610,683.119995 745.503296,682.956360 
	C754.875610,682.838562 764.242615,682.320984 773.613525,682.031372 
	C774.929077,681.990723 776.308533,682.033569 777.563965,682.380066 
	C782.513000,683.745789 786.943665,682.961243 791.389771,680.293945 
	C793.088562,679.274902 795.725037,679.483765 797.888367,679.668884 
	C800.036743,679.852661 802.127441,680.710144 804.564026,681.357300 
	C803.601990,682.154114 802.367249,683.176758 801.068237,684.529175 
	C797.389343,685.283264 793.774902,686.075500 790.159973,686.078064 
	C700.998352,686.140869 611.836670,686.120056 522.674988,686.114197 
	C521.050293,686.114136 519.425598,686.114197 517.489563,686.114197 
	C517.489563,737.623230 517.489563,788.699341 517.489563,840.341248 
	C655.925049,840.341248 794.271362,840.341248 933.488770,840.341248 
	C928.847961,852.589478 924.519409,864.068054 920.151245,875.531555 
	C909.126038,904.465271 898.083801,933.392517 887.046753,962.321716 
	C882.259399,974.870178 873.650818,980.860352 860.393860,980.860718 
	C742.233398,980.864014 624.072937,980.865906 505.352417,980.433960 
	C502.643555,978.667908 500.494720,977.336182 498.238800,975.546631 
	C498.116669,912.046265 498.100128,849.003784 498.096954,785.961243 
	C498.096893,784.639160 498.250854,783.317017 498.332916,781.994934 
z"/>
<path fill="#3C9FFD" opacity="1.000000" stroke="none" 
	d="
M454.583099,712.999878 
	C454.640228,725.686951 454.697357,738.374084 454.301331,751.382019 
	C453.564362,746.487366 453.430237,741.256531 452.897858,736.066528 
	C452.753723,734.661194 451.495636,732.281982 450.595215,732.207581 
	C439.326111,731.275696 428.032959,730.596252 416.736267,730.056580 
	C412.704620,729.863953 408.608917,729.917786 404.611053,730.412903 
	C400.477325,730.924988 396.431030,732.129395 392.338928,732.995239 
	C386.337708,734.265076 378.792511,731.600464 375.435486,739.658447 
	C375.326233,739.920593 374.516327,739.890808 374.033051,739.997070 
	C373.978424,725.972290 373.923798,711.947510 374.305908,697.400696 
	C375.793182,694.896912 376.583710,692.704224 377.970032,690.994690 
	C379.265106,689.397644 381.115021,687.296570 382.854095,687.163757 
	C397.277832,686.062744 411.471619,682.148865 426.127289,683.729065 
	C432.279388,684.392456 438.546692,684.063416 444.674133,684.859253 
	C450.938629,685.672852 452.948303,688.509644 452.992432,694.851074 
	C453.024780,699.499390 452.879822,704.153259 453.074402,708.793701 
	C453.133942,710.214355 454.056000,711.598816 454.583099,712.999878 
z"/>
<path fill="#30A8FC" opacity="1.000000" stroke="none" 
	d="
M454.679779,712.540405 
	C454.056000,711.598816 453.133942,710.214355 453.074402,708.793701 
	C452.879822,704.153259 453.024780,699.499390 452.992432,694.851074 
	C452.948303,688.509644 450.938629,685.672852 444.674133,684.859253 
	C438.546692,684.063416 432.279388,684.392456 426.127289,683.729065 
	C411.471619,682.148865 397.277832,686.062744 382.854095,687.163757 
	C381.115021,687.296570 379.265106,689.397644 377.970032,690.994690 
	C376.583710,692.704224 375.793182,694.896912 374.392670,696.938782 
	C373.988617,681.973145 373.934540,666.947449 374.319611,651.398315 
	C375.228149,650.437195 375.859558,650.084656 376.140930,649.548401 
	C378.151093,645.716980 382.241974,641.151611 386.056793,640.665222 
	C393.393646,639.729797 400.839813,639.413635 408.246002,639.333069 
	C414.411652,639.265930 420.586182,639.882141 426.753815,640.246460 
	C428.038635,640.322388 429.513672,640.272278 430.553070,640.877625 
	C435.226593,643.599609 439.958008,643.503174 444.947784,641.943237 
	C449.111389,640.641541 452.906677,643.465271 452.976257,647.791199 
	C453.061829,653.112000 452.892944,658.438721 453.071869,663.754883 
	C453.119965,665.183899 454.031738,666.583862 454.547058,667.997131 
	C454.620300,672.409546 454.693542,676.822021 454.484863,682.002747 
	C454.338379,685.134460 454.473846,687.497925 454.609314,689.861328 
	C454.665039,697.267822 454.720734,704.674377 454.679779,712.540405 
z"/>
<path fill="#26B2FD" opacity="1.000000" stroke="none" 
	d="
M454.642700,667.537598 
	C454.031738,666.583862 453.119965,665.183899 453.071869,663.754883 
	C452.892944,658.438721 453.061829,653.112000 452.976257,647.791199 
	C452.906677,643.465271 449.111389,640.641541 444.947784,641.943237 
	C439.958008,643.503174 435.226593,643.599609 430.553070,640.877625 
	C429.513672,640.272278 428.038635,640.322388 426.753815,640.246460 
	C420.586182,639.882141 414.411652,639.265930 408.246002,639.333069 
	C400.839813,639.413635 393.393646,639.729797 386.056793,640.665222 
	C382.241974,641.151611 378.151093,645.716980 376.140930,649.548401 
	C375.859558,650.084656 375.228149,650.437195 374.406860,650.936462 
	C373.991241,634.972351 373.927551,618.946655 374.304932,602.395386 
	C375.488617,600.459595 376.025970,598.874695 377.034027,597.690369 
	C377.961578,596.600647 379.415039,595.195190 380.602692,595.226379 
	C385.035248,595.342896 389.444733,596.180176 393.879883,596.394897 
	C399.427673,596.663452 404.992157,596.602661 410.549713,596.650635 
	C415.571320,596.693970 420.615814,596.402710 425.609131,596.789246 
	C430.954895,597.203125 436.231964,598.623840 441.576233,598.909912 
	C449.718475,599.345703 452.989410,602.460632 452.998871,610.825623 
	C453.003387,614.812927 452.864960,618.807373 453.073334,622.783813 
	C453.148163,624.211853 454.050659,625.596497 454.575378,627.000977 
	C454.629700,640.360046 454.684021,653.719055 454.642700,667.537598 
z"/>
<path fill="#6083FC" opacity="1.000000" stroke="none" 
	d="
M374.048767,843.000000 
	C373.990570,830.640991 373.932404,818.281982 374.403595,805.461182 
	C388.373871,804.332947 401.809845,803.516174 415.258179,803.079041 
	C420.169769,802.919434 425.370483,804.801025 429.982574,803.749084 
	C438.817413,801.733948 446.547119,804.619324 454.546906,807.004822 
	C454.615570,817.033081 454.684204,827.061340 454.318512,837.662231 
	C452.354004,839.156433 450.859863,840.804932 449.287964,840.882751 
	C438.123596,841.435242 426.944977,841.787415 415.767303,841.938171 
	C411.493988,841.995850 407.005402,840.382141 402.973969,841.232483 
	C393.353027,843.261719 383.778625,843.844727 374.048767,843.000000 
z"/>
<path fill="#7277FB" opacity="1.000000" stroke="none" 
	d="
M373.966736,843.462524 
	C383.778625,843.844727 393.353027,843.261719 402.973969,841.232483 
	C407.005402,840.382141 411.493988,841.995850 415.767303,841.938171 
	C426.944977,841.787415 438.123596,841.435242 449.287964,840.882751 
	C450.859863,840.804932 452.354004,839.156433 454.218689,838.120728 
	C454.620209,847.371826 454.687225,856.737061 454.305420,866.692200 
	C453.571198,868.183044 453.082153,869.072998 453.032867,869.986694 
	C452.650085,877.085083 450.513733,878.669434 443.319489,877.304382 
	C441.546692,876.968018 439.673187,876.911133 437.868134,877.038879 
	C429.404236,877.637573 420.926422,878.148865 412.496124,879.077698 
	C405.952942,879.798523 399.232117,880.347473 393.038177,882.354919 
	C387.832947,884.041931 383.056213,886.578186 377.395416,885.086914 
	C373.391998,871.607971 373.774658,857.754883 373.966736,843.462524 
z"/>
<path fill="#518EFC" opacity="1.000000" stroke="none" 
	d="
M454.645569,806.545410 
	C446.547119,804.619324 438.817413,801.733948 429.982574,803.749084 
	C425.370483,804.801025 420.169769,802.919434 415.258179,803.079041 
	C401.809845,803.516174 388.373871,804.332947 374.485748,804.998535 
	C373.980743,793.973938 373.922974,782.950378 374.331360,771.454407 
	C377.948395,768.282776 381.841980,768.477295 385.641541,767.716003 
	C403.628143,764.111938 421.802856,765.473022 439.894958,765.199585 
	C443.769958,765.141052 447.926422,767.129333 451.453644,769.078613 
	C452.797180,769.821167 452.692657,773.118652 453.358490,775.216675 
	C453.470367,775.569153 454.146118,775.742737 454.561340,775.999023 
	C454.622314,786.028015 454.683289,796.057007 454.645569,806.545410 
z"/>
<path fill="#1AB9FD" opacity="1.000000" stroke="none" 
	d="
M454.670898,626.554749 
	C454.050659,625.596497 453.148163,624.211853 453.073334,622.783813 
	C452.864960,618.807373 453.003387,614.812927 452.998871,610.825623 
	C452.989410,602.460632 449.718475,599.345703 441.576233,598.909912 
	C436.231964,598.623840 430.954895,597.203125 425.609131,596.789246 
	C420.615814,596.402710 415.571320,596.693970 410.549713,596.650635 
	C404.992157,596.602661 399.427673,596.663452 393.879883,596.394897 
	C389.444733,596.180176 385.035248,595.342896 380.602692,595.226379 
	C379.415039,595.195190 377.961578,596.600647 377.034027,597.690369 
	C376.025970,598.874695 375.488617,600.459595 374.392090,601.933472 
	C373.983978,589.638306 373.929871,577.279663 374.336090,564.454346 
	C379.969147,562.454468 385.059937,560.438782 390.340698,559.542053 
	C394.490631,558.837402 399.118195,558.634827 403.111511,559.737549 
	C416.923737,563.551758 431.022125,563.360291 445.101288,563.802979 
	C451.028473,573.215393 453.409424,583.697449 454.284546,595.273193 
	C454.313660,596.255249 454.449677,596.565552 454.585693,596.875854 
	C454.647064,603.308533 454.708466,609.741272 454.571289,616.716553 
	C454.241089,617.525635 454.308990,617.737549 454.576385,617.894714 
	C454.639740,620.632629 454.703094,623.370605 454.670898,626.554749 
z"/>
<path fill="#4496FB" opacity="1.000000" stroke="none" 
	d="
M454.661377,775.540283 
	C454.146118,775.742737 453.470367,775.569153 453.358490,775.216675 
	C452.692657,773.118652 452.797180,769.821167 451.453644,769.078613 
	C447.926422,767.129333 443.769958,765.141052 439.894958,765.199585 
	C421.802856,765.473022 403.628143,764.111938 385.641541,767.716003 
	C381.841980,768.477295 377.948395,768.282776 374.415161,770.992249 
	C373.974731,760.975403 373.916687,750.948425 373.945862,740.459229 
	C374.516327,739.890808 375.326233,739.920593 375.435486,739.658447 
	C378.792511,731.600464 386.337708,734.265076 392.338928,732.995239 
	C396.431030,732.129395 400.477325,730.924988 404.611053,730.412903 
	C408.608917,729.917786 412.704620,729.863953 416.736267,730.056580 
	C428.032959,730.596252 439.326111,731.275696 450.595215,732.207581 
	C451.495636,732.281982 452.753723,734.661194 452.897858,736.066528 
	C453.430237,741.256531 453.564362,746.487366 454.203430,751.838867 
	C454.626190,759.677063 454.693787,767.379333 454.661377,775.540283 
z"/>
<path fill="#0C0D1D" opacity="1.000000" stroke="none" 
	d="
M872.645813,546.520386 
	C870.721680,546.664185 868.913574,546.398438 867.105530,546.398560 
	C752.113159,546.403931 637.120789,546.430969 522.128418,546.455994 
	C520.662964,546.456299 519.197449,546.456055 517.435791,546.456055 
	C517.435791,496.427704 517.435791,446.838104 517.435791,396.320801 
	C520.123535,396.320801 522.862671,396.320374 525.601868,396.320831 
	C643.427856,396.340363 761.253845,396.361755 879.079834,396.368378 
	C881.743530,396.368530 884.407166,396.201385 887.537659,396.163910 
	C886.224243,397.138794 884.521973,398.309967 882.637817,398.902466 
	C881.271667,399.332123 879.664551,398.999390 878.164856,398.999390 
	C763.687744,399.000061 649.210571,398.998627 534.733459,399.005951 
	C530.977356,399.006195 527.199463,398.890503 523.480591,399.287140 
	C522.560791,399.385254 521.236450,401.218109 521.117798,402.359589 
	C520.552734,407.792053 520.063354,413.260315 520.046997,418.717316 
	C519.953308,449.877502 520.002136,481.038086 520.002441,512.198547 
	C520.002502,518.944519 519.899170,525.692444 520.028198,532.435974 
	C520.182434,540.501038 522.879028,543.785400 530.559448,543.901367 
	C548.218445,544.167908 565.884155,543.979431 583.547180,543.979797 
	C589.460510,543.979919 595.373901,543.998657 601.287231,543.999084 
	C630.281433,544.001221 659.275696,544.000000 688.269897,544.000000 
	C731.551270,544.000000 774.832581,544.000061 818.113953,544.000000 
	C829.025635,544.000000 839.977722,544.567444 850.834656,543.796326 
	C857.867554,543.296936 864.671326,542.740784 871.420471,545.054871 
	C871.941284,545.233459 872.318176,545.831604 872.645813,546.520386 
z"/>
<path fill="#8271FA" opacity="1.000000" stroke="none" 
	d="
M377.413330,885.505127 
	C383.056213,886.578186 387.832947,884.041931 393.038177,882.354919 
	C399.232117,880.347473 405.952942,879.798523 412.496124,879.077698 
	C420.926422,878.148865 429.404236,877.637573 437.868134,877.038879 
	C439.673187,876.911133 441.546692,876.968018 443.319489,877.304382 
	C450.513733,878.669434 452.650085,877.085083 453.032867,869.986694 
	C453.082153,869.072998 453.571198,868.183044 454.201782,867.150818 
	C454.603027,869.102356 454.659119,871.185242 454.442688,874.019775 
	C454.307739,877.143555 454.445343,879.515625 454.582947,881.887756 
	C454.639740,886.629578 454.696533,891.371338 454.297241,896.707153 
	C453.560577,900.028992 453.126526,902.751587 453.032562,905.485840 
	C452.856384,910.610962 449.866455,913.203064 444.904083,913.047363 
	C441.230011,912.932068 437.526764,913.547974 433.845947,913.929199 
	C431.901520,914.130615 429.986237,914.696289 428.042023,914.799500 
	C424.154816,915.005676 420.246521,914.859497 416.365814,915.129883 
	C411.541656,915.465881 406.618500,915.596924 401.966675,916.743774 
	C399.077240,917.456055 396.849274,918.370178 394.144897,916.285706 
	C393.406403,915.716553 391.342926,916.866394 389.887482,917.227295 
	C385.735382,906.792664 381.583313,896.357971 377.413330,885.505127 
z"/>
<path fill="#0DBDFC" opacity="1.000000" stroke="none" 
	d="
M444.960693,563.487671 
	C431.022125,563.360291 416.923737,563.551758 403.111511,559.737549 
	C399.118195,558.634827 394.490631,558.837402 390.340698,559.542053 
	C385.059937,560.438782 379.969147,562.454468 374.423462,563.992432 
	C373.992859,556.639160 373.935211,549.281189 374.300110,541.407471 
	C381.030975,531.033325 390.670410,532.223145 400.068298,533.650269 
	C407.207245,534.734314 414.176208,537.158081 421.511444,535.194580 
	C421.511444,535.194580 421.618927,535.366089 421.534180,535.745239 
	C421.780487,536.186707 422.111511,536.248962 422.442535,536.311157 
	C422.442535,536.311157 422.539307,536.435852 422.489288,536.783813 
	C422.778290,537.208435 423.117310,537.285034 423.456299,537.361694 
	C423.456299,537.361694 423.497314,537.476624 423.461273,537.810608 
	C423.771301,538.247253 424.117371,538.349854 424.463440,538.452515 
	C424.463440,538.452515 424.467010,538.550598 424.421295,538.876099 
	C425.066071,539.669922 425.756592,540.138184 426.447113,540.606445 
	C426.447113,540.606445 426.300995,540.628235 426.237549,541.048096 
	C425.044891,546.953857 428.406891,547.334534 432.426208,546.967957 
	C436.557495,552.369446 440.688812,557.770874 444.960693,563.487671 
z"/>
<path fill="#9569FA" opacity="1.000000" stroke="none" 
	d="
M389.955444,917.561401 
	C391.342926,916.866394 393.406403,915.716553 394.144897,916.285706 
	C396.849274,918.370178 399.077240,917.456055 401.966675,916.743774 
	C406.618500,915.596924 411.541656,915.465881 416.365814,915.129883 
	C420.246521,914.859497 424.154816,915.005676 428.042023,914.799500 
	C429.986237,914.696289 431.901520,914.130615 433.845947,913.929199 
	C437.526764,913.547974 441.230011,912.932068 444.904083,913.047363 
	C449.866455,913.203064 452.856384,910.610962 453.032562,905.485840 
	C453.126526,902.751587 453.560577,900.028992 454.192200,897.164307 
	C454.619904,900.737610 454.696594,904.447632 454.574890,908.700439 
	C454.239807,909.528687 454.312592,909.757324 454.594849,909.929016 
	C454.652679,910.419861 454.710480,910.910645 454.486572,912.069092 
	C454.124786,914.477112 454.044769,916.217468 453.682373,918.268066 
	C453.267090,924.379150 453.102264,930.179626 453.010529,935.981140 
	C452.923248,941.502136 451.245514,942.602234 445.908569,940.889099 
	C443.280701,940.045654 440.484192,939.055542 437.811707,939.177368 
	C433.587799,939.369873 429.390625,940.371277 425.206757,941.160767 
	C420.368805,942.073547 415.557495,943.127625 410.734589,944.120361 
	C403.830841,935.378723 396.927124,926.637085 389.955444,917.561401 
z"/>
<path fill="#07BEFC" opacity="1.000000" stroke="none" 
	d="
M421.367126,534.920410 
	C414.176208,537.158081 407.207245,534.734314 400.068298,533.650269 
	C390.670410,532.223145 381.030975,531.033325 374.384155,540.945251 
	C374.045715,522.774292 374.045715,504.549927 374.045715,485.291962 
	C390.205414,502.197418 405.714111,518.421814 421.367126,534.920410 
z"/>
<path fill="#9E61FA" opacity="1.000000" stroke="none" 
	d="
M410.885529,944.427124 
	C415.557495,943.127625 420.368805,942.073547 425.206757,941.160767 
	C429.390625,940.371277 433.587799,939.369873 437.811707,939.177368 
	C440.484192,939.055542 443.280701,940.045654 445.908569,940.889099 
	C451.245514,942.602234 452.923248,941.502136 453.010529,935.981140 
	C453.102264,930.179626 453.267090,924.379150 453.836975,918.290405 
	C454.273956,918.002625 454.585480,917.999695 454.585449,917.999695 
	C454.644043,918.786865 454.702637,919.574036 454.490295,921.002441 
	C454.344696,923.052917 454.469971,924.462158 454.595245,925.871460 
	C454.661041,932.991821 454.726807,940.112244 454.526428,947.923584 
	C454.389130,949.687561 454.518005,950.760681 454.646851,951.833740 
	C454.702271,953.654541 454.757690,955.475403 454.532227,958.004700 
	C454.365265,960.408203 454.479187,962.103210 454.593079,963.798218 
	C454.593079,966.079102 454.593079,968.360046 454.593079,971.383728 
	C437.824341,965.448730 423.289337,956.997620 410.885529,944.427124 
z"/>
<path fill="#0C0D1D" opacity="1.000000" stroke="none" 
	d="
M498.231445,781.585449 
	C498.250854,783.317017 498.096893,784.639160 498.096954,785.961243 
	C498.100128,849.003784 498.116669,912.046265 498.140625,975.915710 
	C498.058685,977.494263 497.967804,978.245972 497.876923,978.997620 
	C497.265045,978.338074 496.303772,977.762695 496.120117,977.000000 
	C495.816071,975.737488 496.000549,974.354248 496.000549,973.021912 
	C495.998657,846.900208 495.996094,720.778442 496.026123,594.656738 
	C496.026550,592.885132 496.437714,591.113647 496.983215,589.162842 
	C497.583588,592.782654 498.087097,596.581177 498.096069,600.380920 
	C498.166656,630.367981 498.142822,660.355286 498.145782,691.185059 
	C498.210602,695.294617 498.277710,698.561523 498.344849,701.828491 
	C498.273224,728.277649 498.201599,754.726807 498.231445,781.585449 
z"/>
<path fill="#07BEFC" opacity="1.000000" stroke="none" 
	d="
M432.282288,546.648560 
	C428.406891,547.334534 425.044891,546.953857 426.316833,541.029419 
	C428.352478,542.503662 430.245392,544.416382 432.282288,546.648560 
z"/>
<path fill="#FCFCFC" opacity="1.000000" stroke="none" 
	d="
M497.991333,979.305176 
	C497.967804,978.245972 498.058685,977.494263 498.247742,976.373535 
	C500.494720,977.336182 502.643555,978.667908 504.893433,980.332520 
	C502.698212,980.314453 500.401947,979.963623 497.991333,979.305176 
z"/>
<path fill="#0C0D1D" opacity="1.000000" stroke="none" 
	d="
M890.197327,396.224854 
	C891.426697,395.376678 892.874329,394.799774 894.660522,394.200043 
	C894.486633,396.957214 892.846680,397.508453 890.197327,396.224854 
z"/>
<path fill="#4496FB" opacity="1.000000" stroke="none" 
	d="
M454.705933,689.443054 
	C454.473846,687.497925 454.338379,685.134460 454.393494,682.470154 
	C454.656891,684.454407 454.729706,686.739624 454.705933,689.443054 
z"/>
<path fill="#7277FB" opacity="1.000000" stroke="none" 
	d="
M454.681091,881.466187 
	C454.445343,879.515625 454.307739,877.143555 454.344849,874.457764 
	C454.606110,876.444275 454.692657,878.744507 454.681091,881.466187 
z"/>
<path fill="#7277FB" opacity="1.000000" stroke="none" 
	d="
M454.687531,917.588623 
	C454.585480,917.999695 454.273956,918.002625 454.119324,917.980225 
	C454.044769,916.217468 454.124786,914.477112 454.401367,912.432373 
	C454.661774,913.811218 454.725677,915.494385 454.687531,917.588623 
z"/>
<path fill="#7277FB" opacity="1.000000" stroke="none" 
	d="
M454.692780,963.408447 
	C454.479187,962.103210 454.365265,960.408203 454.442993,958.452759 
	C454.687256,959.801086 454.739868,961.409912 454.692780,963.408447 
z"/>
<path fill="#7277FB" opacity="1.000000" stroke="none" 
	d="
M454.695099,925.485474 
	C454.469971,924.462158 454.344696,923.052917 454.401398,921.389526 
	C454.653900,922.456726 454.724426,923.778137 454.695099,925.485474 
z"/>
<path fill="#7277FB" opacity="1.000000" stroke="none" 
	d="
M454.742920,951.475464 
	C454.518005,950.760681 454.389130,949.687561 454.439209,948.395569 
	C454.691772,949.156860 454.765350,950.137024 454.742920,951.475464 
z"/>
<path fill="#C6C8CF" opacity="1.000000" stroke="none" 
	d="
M496.670990,580.091919 
	C497.278442,580.396545 497.722931,580.940552 498.065643,581.770508 
	C497.478607,581.481384 496.993347,580.906311 496.670990,580.091919 
z"/>
<path fill="#07BEFC" opacity="1.000000" stroke="none" 
	d="
M426.341858,540.332642 
	C425.756592,540.138184 425.066071,539.669922 424.464600,538.853027 
	C425.114655,539.022583 425.675629,539.540771 426.341858,540.332642 
z"/>
<path fill="#7277FB" opacity="1.000000" stroke="none" 
	d="
M454.670532,909.714478 
	C454.312592,909.757324 454.239807,909.528687 454.484802,909.157349 
	C454.593109,909.071533 454.746216,909.499939 454.670532,909.714478 
z"/>
<path fill="#30A8FC" opacity="1.000000" stroke="none" 
	d="
M454.652832,617.697876 
	C454.308990,617.737549 454.241089,617.525635 454.476257,617.182495 
	C454.579742,617.105896 454.729309,617.500977 454.652832,617.697876 
z"/>
<path fill="#07BEFC" opacity="1.000000" stroke="none" 
	d="
M422.375549,536.134399 
	C422.111511,536.248962 421.780487,536.186707 421.570251,535.839844 
	C421.954712,535.600647 422.160553,535.734802 422.375549,536.134399 
z"/>
<path fill="#30A8FC" opacity="1.000000" stroke="none" 
	d="
M454.657318,596.614014 
	C454.449677,596.565552 454.313660,596.255249 454.209595,595.682861 
	C454.403992,595.731262 454.566467,596.041687 454.657318,596.614014 
z"/>
<path fill="#07BEFC" opacity="1.000000" stroke="none" 
	d="
M423.386414,537.170410 
	C423.117310,537.285034 422.778290,537.208435 422.546356,536.838379 
	C422.939606,536.590210 423.160645,536.734924 423.386414,537.170410 
z"/>
<path fill="#0C0D1D" opacity="1.000000" stroke="none" 
	d="
M496.720459,586.119385 
	C496.862671,586.000122 497.033569,586.448730 497.086548,586.682922 
	C496.952423,586.690979 496.765350,586.464783 496.720459,586.119385 
z"/>
<path fill="#0C0D1D" opacity="1.000000" stroke="none" 
	d="
M497.120422,587.082825 
	C497.383484,587.076721 497.678558,587.286682 497.826569,587.737671 
	C497.425323,587.812988 497.249634,587.586365 497.120422,587.082825 
z"/>
<path fill="#07BEFC" opacity="1.000000" stroke="none" 
	d="
M424.387878,538.243530 
	C424.117371,538.349854 423.771301,538.247253 423.513184,537.842651 
	C423.910522,537.601135 424.147614,537.765747 424.387878,538.243530 
z"/>
<path fill="#F8F8F8" opacity="1.000000" stroke="none" 
	d="
M498.771301,701.876343 
	C498.277710,698.561523 498.210602,695.294617 498.247986,691.593628 
	C502.955719,690.525696 503.406189,694.146851 503.866760,697.074890 
	C504.362335,700.225220 502.498291,701.979309 498.771301,701.876343 
z"/>
</svg>